<?xml version="1.0" encoding="UTF-8"?>
<svg width="9px" height="14px" viewBox="0 0 9 14" version="1.1" xmlns="http://www.w3.org/2000/svg" xmlns:xlink="http://www.w3.org/1999/xlink">
    <!-- Generator: Sketch 52.4 (67378) - http://www.bohemiancoding.com/sketch -->
    <title>Combined Shape</title>
    <desc>Created with Sketch.</desc>
    <g id="Page-1" stroke="none" stroke-width="1" fill="none" fill-rule="evenodd">
        <g id="我们的伙伴-1" transform="translate(-1311.000000, -146.000000)" fill="#0A69C6" fill-rule="nonzero">
            <path d="M1318.61574,151.777992 C1318.73213,151.823574 1318.84117,151.890484 1318.93597,151.978722 C1319.32818,152.343776 1319.32818,152.935646 1318.93597,153.3007 L1312.78129,159.029274 C1312.38111,159.401746 1311.76115,159.401746 1311.36097,159.029274 C1311.34518,159.014571 1311.32991,158.999307 1311.31521,158.983511 C1310.97543,158.618457 1310.99592,158.047076 1311.36097,157.707296 L1316.75322,152.688378 L1311.28778,147.601332 C1310.92272,147.261552 1310.90223,146.690171 1311.24202,146.325117 C1311.25672,146.309321 1311.27198,146.294057 1311.28778,146.279354 C1311.68796,145.906882 1312.30791,145.906882 1312.70809,146.279354 L1318.61574,151.777992 Z" id="Combined-Shape"></path>
        </g>
    </g>
</svg>