<?xml version="1.0" encoding="UTF-8"?>
<svg width="11px" height="6px" viewBox="0 0 11 6" version="1.1" xmlns="http://www.w3.org/2000/svg" xmlns:xlink="http://www.w3.org/1999/xlink">
    <!-- Generator: Sketch 53.1 (72631) - https://sketchapp.com -->
    <title>Combined Shape</title>
    <desc>Created with Sketch.</desc>
    <g id="Page-1" stroke="none" stroke-width="1" fill="none" fill-rule="evenodd" opacity="0.7">
        <g id="合作伙伴填写内容" transform="translate(-671.000000, -376.000000)" fill="#CCCCCC" fill-rule="nonzero">
            <path d="M679.287706,378.341538 C679.36852,378.375788 679.444227,378.426064 679.510049,378.492365 C679.782365,378.766664 679.782365,379.211391 679.510049,379.48569 L675.23677,383.790096 C675.235586,383.791288 675.234397,383.792477 675.233205,383.793661 C674.960889,384.064007 674.520975,384.062411 674.250629,383.790096 C673.977737,383.515215 673.977737,383.071651 674.250629,382.796771 L677.994534,379.025596 L674.199808,375.203229 C673.926916,374.928349 673.926916,374.484785 674.199808,374.209904 C674.470154,373.937589 674.910068,373.935993 675.182384,374.206339 C675.183577,374.207523 675.184765,374.208712 675.185949,374.209904 L679.287706,378.341538 Z" id="Combined-Shape" transform="translate(676.857143, 379.000000) rotate(90.000000) translate(-676.857143, -379.000000) "></path>
        </g>
    </g>
</svg>