<?xml version="1.0" encoding="UTF-8"?>
<svg width="1440px" height="420px" version="1.1" xmlns="http://www.w3.org/2000/svg" xmlns:xlink="http://www.w3.org/1999/xlink">
    <!-- Generator: Sketch 53.1 (72631) - https://sketchapp.com -->
    <title>Oval</title>
    <desc>Created with Sketch.</desc>
    <g id="Page-1" stroke="none" stroke-width="1" fill="none" fill-rule="evenodd">
        <g id="支持与服务-copy-6" transform="translate(0.000000, -538.000000)">
            <g id="Oval-2" transform="translate(-693.000000, -650.000000)">
                <g id="Oval">
                    <g id="分组">
                        <g id="分组-20">
                            <g id="分组-18" transform="translate(2033.277771, 1271.865592) scale(-1, 1) rotate(-31.000000) translate(-2033.277771, -1271.865592) translate(2027.777771, 1231.865592)" fill="#5480FF" fill-rule="nonzero">
                                <path d="M1.49242581,2.41226119 C2.18316177,2.41226119 2.74311391,1.87257115 2.74311391,1.20682973 C2.74311391,0.541088318 2.18316177,0.00139826946 1.49242581,0.00139826946 C0.801689854,0.00139826946 0.241737721,0.541088318 0.241737721,1.20682973 C0.241737721,1.87257115 0.801689854,2.41226119 1.49242581,2.41226119 Z" id="椭圆形-copy-7"></path>
                                <path d="M8.989761,79.2483853 C9.68049696,79.2483853 10.2404491,78.7086952 10.2404491,78.0429538 C10.2404491,77.3772124 9.68049696,76.8375224 8.989761,76.8375224 C8.29902504,76.8375224 7.73907291,77.3772124 7.73907291,78.0429538 C7.73907291,78.7086952 8.29902504,79.2483853 8.989761,79.2483853 Z" id="椭圆形-copy-9"></path>
                            </g>
                            <g id="分组-15" transform="translate(1345.543410, 1344.041948) rotate(-13.000000) translate(-1345.543410, -1344.041948) translate(224.043410, 224.041948)">
                                <g id="分组-13" transform="translate(1121.272905, 1120.406717) rotate(-316.000000) translate(-1121.272905, -1120.406717) translate(295.772905, 361.406717)">
                                    <path d="M7.00990946,1517.25927 C107.951347,1423.15065 79.5043467,1250.20069 247.025177,1087.03373 C469.894369,869.956897 939.843661,954.940037 1197.7097,761.968033 C1455.57573,568.996028 1277.57239,337.786961 1641.43036,0.126741618" id="路径" stroke="#6ACAFF" stroke-width="0.5" opacity="0.699999988"></path>
                                    <path d="M7.00990946,1517.25927 C107.951347,1423.15065 59.4249445,1239.66283 226.945775,1076.49586 C449.814967,859.419032 884.770284,978.191271 1197.7097,782.990878 C1510.64911,587.790485 1277.57239,337.786961 1641.43036,0.126741618" id="路径" stroke="#6ACAFF" stroke-width="0.5"></path>
                                    <ellipse id="椭圆形" fill="#5480FF" fill-rule="nonzero" cx="1421.27784" cy="350.698398" rx="2.50137619" ry="2.41086293"></ellipse>
                                    <path d="M0.314414489,1506.1161 C101.255852,1412.00747 50.6692972,1225.09099 218.190127,1061.92402 C441.059319,844.847188 899.004666,987.854576 1211.94408,792.654183 C1524.88349,597.45379 1286.32803,352.358805 1650.18601,14.6985857" id="路径-copy" stroke="#6ACAFF" stroke-width="0.5"></path>
                                    <path d="M7.00990946,1517.25927 C107.951347,1423.15065 94.3063793,1264.29316 261.82721,1101.12619 C484.696401,884.04936 1000.67427,931.173594 1203.6689,727.819576 C1406.66352,524.465558 1277.57239,337.786961 1641.43036,0.126741618" id="路径" stroke="#6ACAFF" stroke-width="0.5" opacity="0.600000024"></path>
                                    <path d="M7.00990946,1517.25927 C107.951347,1423.15065 105.376157,1284.51172 272.896987,1121.34475 C495.766179,904.267923 1030.38253,904.290185 1197.60098,696.93722 C1364.81943,489.584254 1277.57239,337.786961 1641.43036,0.126741618" id="路径" stroke="#6ACAFF" stroke-width="0.5" opacity="0.5"></path>
                                    <path d="M7.00990946,1517.25927 C107.951347,1423.15065 114.90082,1297.74702 282.42165,1134.58005 C505.290842,917.503218 1004.90844,902.543746 1190.45951,653.561733 C1345.54009,445.466602 1277.57239,337.786961 1641.43036,0.126741618" id="路径" stroke="#6ACAFF" stroke-width="0.5" opacity="0.300000012"></path>
                                    <path d="M7.00990946,1517.25927 C107.951347,1423.15065 124.425483,1315.39408 291.946313,1152.22711 C514.815505,935.150279 938.717184,913.560068 1143.84438,650.648152 C1334.90864,405.760715 1277.57239,337.786961 1641.43036,0.126741618" id="路径" stroke="#6ACAFF" stroke-width="0.5" opacity="0.100000001"></path>
                                </g>
                                <g id="分组-2" transform="translate(403.427312, 1155.181378) scale(1, -1) translate(-403.427312, -1155.181378) translate(115.927312, 904.681378)" fill-rule="nonzero">
                                    <ellipse id="椭圆形-copy-42" fill="#FFFFFF" cx="521.614297" cy="188.528723" rx="2.80437794" ry="2.60039617"></ellipse>
                                    <ellipse id="椭圆形-copy-37" fill="#FFFFFF" cx="503.38584" cy="169.025751" rx="4.20656691" ry="3.90059426"></ellipse>
                                    <ellipse id="椭圆形-copy-41" fill="#FFFFFF" cx="515.304446" cy="196.98001" rx="2.10328345" ry="1.95029713"></ellipse>
                                    <path d="M429.770919,232.735458 C430.158123,232.735458 430.472014,232.444398 430.472014,232.085359 C430.472014,231.726319 430.158123,231.435259 429.770919,231.435259 C429.383715,231.435259 429.069825,231.726319 429.069825,232.085359 C429.069825,232.444398 429.383715,232.735458 429.770919,232.735458 Z" id="椭圆形-copy-34" fill="#FFFFFF"></path>
                                    <path d="M573.842887,500.279325 C574.229402,500.283677 574.539206,499.995587 574.534855,499.635858 C574.530503,499.276128 574.213644,498.980983 573.827129,498.976631 C573.440614,498.97228 573.13081,499.26037 573.135162,499.620099 C573.139513,499.979828 573.456373,500.274974 573.842887,500.279325 Z" id="椭圆形-copy-54" fill="#5480FF" transform="translate(573.835008, 499.627978) rotate(-9.000000) translate(-573.835008, -499.627978) "></path>
                                    <path d="M460.619077,222.333873 C461.00628,222.333873 461.320171,222.042814 461.320171,221.683774 C461.320171,221.324734 461.00628,221.033675 460.619077,221.033675 C460.231873,221.033675 459.917982,221.324734 459.917982,221.683774 C459.917982,222.042814 460.231873,222.333873 460.619077,222.333873 Z" id="椭圆形-copy-51" fill="#FFFFFF"></path>
                                    <path d="M396.118384,374.457049 C397.279995,374.457049 398.221667,373.583871 398.221667,372.506752 C398.221667,371.429633 397.279995,370.556455 396.118384,370.556455 C394.956773,370.556455 394.015101,371.429633 394.015101,372.506752 C394.015101,373.583871 394.956773,374.457049 396.118384,374.457049 Z" id="椭圆形-copy-53" fill="#5480FF" opacity="0.400000006"></path>
                                </g>
                                <g id="分组-2" transform="translate(586.202575, 941.475330)" fill-rule="nonzero">
                                    <ellipse id="椭圆形-copy-67" fill="#6ACAFF" opacity="0.400000006" cx="704.168115" cy="198.082404" rx="3" ry="2.5"></ellipse>
                                    <ellipse id="椭圆形-copy-42" fill="#6ACAFF" opacity="0.5" cx="2.82703207" cy="3.37854638" rx="2.80809885" ry="2.59952457"></ellipse>
                                    <ellipse id="椭圆形-copy-37" fill="#FFFFFF" cx="1168.89266" cy="183.57813" rx="4.21214827" ry="3.89928686"></ellipse>
                                    <ellipse id="椭圆形-copy-41" fill="#FFFFFF" cx="1154.15014" cy="185.527774" rx="2.10607413" ry="1.94964343"></ellipse>
                                    <ellipse id="椭圆形-copy-14" fill="#FFFFFF" cx="657.818669" cy="114.690729" rx="2.80809885" ry="2.59952457"></ellipse>
                                    <ellipse id="椭圆形-copy-17" fill="#FFFFFF" cx="810.860056" cy="271.961966" rx="2.80809885" ry="2.59952457"></ellipse>
                                    <ellipse id="椭圆形-copy-18" fill="#FFFFFF" cx="1107.11448" cy="192.676466" rx="2.80809885" ry="2.59952457"></ellipse>
                                    <ellipse id="椭圆形-copy-43" fill="#FFFFFF" cx="1039.72011" cy="144.585262" rx="2.80809885" ry="2.59952457"></ellipse>
                                    <ellipse id="椭圆形-copy-20" fill="#FFFFFF" cx="727.319115" cy="91.9448892" rx="2.10607413" ry="1.94964343"></ellipse>
                                    <ellipse id="椭圆形-copy-31" fill="#FFFFFF" cx="1056.56871" cy="381.141998" rx="1.40404942" ry="1.29976229"></ellipse>
                                    <ellipse id="椭圆形-copy-70" fill="#FFFFFF" cx="1095.18006" cy="367.494494" rx="2.10607413" ry="1.94964343"></ellipse>
                                    <ellipse id="椭圆形-copy-71" fill="#FFFFFF" cx="1244.71133" cy="273.261728" rx="1.40404942" ry="1.29976229"></ellipse>
                                    <ellipse id="椭圆形-copy-50" fill="#6ACAFF" cx="812.264105" cy="256.364818" rx="1.40404942" ry="1.29976229"></ellipse>
                                    <path d="M463.078715,386.258741 C464.629585,386.258741 465.886814,385.094894 465.886814,383.659217 C465.886814,382.223539 464.629585,381.059692 463.078715,381.059692 C461.527845,381.059692 460.270616,382.223539 460.270616,383.659217 C460.270616,385.094894 461.527845,386.258741 463.078715,386.258741 Z" id="椭圆形-copy" fill="#6ACAFF" opacity="0.400000006"></path>
                                    <path d="M1206.2092,322.747634 C1206.59622,322.752083 1206.90634,322.464157 1206.9019,322.104533 C1206.89745,321.744909 1206.5801,321.449769 1206.19309,321.445319 C1205.80608,321.44087 1205.49595,321.728796 1205.5004,322.08842 C1205.50485,322.448044 1205.82219,322.743184 1206.2092,322.747634 Z" id="椭圆形-copy-54" fill="#6ACAFF" transform="translate(1206.201146, 322.096477) rotate(-9.000000) translate(-1206.201146, -322.096477) "></path>
                                    <path d="M664.136891,132.887401 C664.524609,132.887401 664.838916,132.59644 664.838916,132.23752 C664.838916,131.878601 664.524609,131.587639 664.136891,131.587639 C663.749174,131.587639 663.434867,131.878601 663.434867,132.23752 C663.434867,132.59644 663.749174,132.887401 664.136891,132.887401 Z" id="椭圆形-copy-60" fill="#6ACAFF"></path>
                                    <path d="M1036.91201,433.132489 C1037.68745,433.132489 1038.31606,432.550566 1038.31606,431.832727 C1038.31606,431.114888 1037.68745,430.532965 1036.91201,430.532965 C1036.13658,430.532965 1035.50796,431.114888 1035.50796,431.832727 C1035.50796,432.550566 1036.13658,433.132489 1036.91201,433.132489 Z" id="椭圆形-copy-61" fill="#6ACAFF"></path>
                                    <path d="M1031.29582,344.748654 C1032.07125,344.748654 1032.69986,344.166731 1032.69986,343.448892 C1032.69986,342.731053 1032.07125,342.149129 1031.29582,342.149129 C1030.52038,342.149129 1029.89177,342.731053 1029.89177,343.448892 C1029.89177,344.166731 1030.52038,344.748654 1031.29582,344.748654 Z" id="椭圆形-copy-58" fill="#6ACAFF"></path>
                                </g>
                            </g>
                        </g>
                    </g>
                </g>
            </g>
        </g>
    </g>
</svg>