<?xml version="1.0" encoding="UTF-8"?>
<svg width="1440px" height="737px" version="1.1" xmlns="http://www.w3.org/2000/svg" xmlns:xlink="http://www.w3.org/1999/xlink">
    <!-- Generator: Sketch 52.4 (67378) - http://www.bohemiancoding.com/sketch -->
    <title>bg-front2</title>
    <desc>Created with Sketch.</desc>
    <g id="Page-1" stroke="none" stroke-width="1" fill="none" fill-rule="evenodd">
        <g id="0102首页" transform="translate(0.000000, -1280.000000)">
            <g id="bg-front2" transform="translate(-100.000000, 1265.000000)">
                <path d="M0,170 C53.2937316,257.486241 147.675476,482.697615 256.330041,411.702483 C434.302732,295.417094 381.928886,558.384192 553.648715,653.405967 C735.808406,754.204984 1222.77381,429.754739 1585,500.597759" id="Stroke-1" stroke="#2264FF" stroke-width="0.5" opacity="0.300000012"></path>
                <path d="M14,146 C59.6447757,220.87681 154.946127,449.914932 270.143251,407.157019 C447.086966,341.481304 432.957536,576.678804 602.369816,663.587585 C794.126905,761.959763 1247.61174,449.641137 1590,544.353062" id="Stroke-3" stroke="#2264FF" stroke-width="0.5" opacity="0.400000006"></path>
                <path d="M27,122 C65.0317228,184.435612 159.925488,416.372451 283.117789,403.143229 C457.127441,384.457739 483.325445,595.411398 650.427855,674.827728 C851.996978,770.624858 1272.21624,470.12623 1595,588.886274" id="Stroke-5" stroke="#2264FF" stroke-width="0.5" opacity="0.5"></path>
                <path d="M39,97 C69.4398508,146.984813 163.271948,379.427452 295.255987,398.188642 C465.464606,422.383073 533.081057,612.867687 697.896428,685.178816 C909.499023,778.016188 1296.61967,489.711231 1600,632.565435" id="Stroke-7" stroke="#2264FF" stroke-width="0.5" opacity="0.600000024"></path>
                <path d="M53,73 C75.8260395,110.461757 168.642332,340.274725 309.230549,393.800661 C475.654177,457.163484 584.596187,630.234879 746.955176,695.682466 C968.535733,785.002348 1322.22451,509.731529 1606,676.474642" id="Stroke-9" stroke="#2264FF" stroke-width="0.5" opacity="0.699999988"></path>
                <path d="M66,48 C81.2151841,72.9643757 173.788547,297.720715 322.204708,388.479184 C485.726198,488.474611 635.141602,646.398424 795.00251,705.320268 C1026.62087,790.691676 1346.82307,528.822591 1611,719.473544" id="Stroke-11" stroke="#2264FF" stroke-width="0.5" opacity="0.800000012"></path>
                <path d="M79,24 C86.6060785,36.4866883 180.048462,254.601308 335.178457,384.426272 C496.993014,519.845202 685.700957,663.75056 843.037627,716.476798 C1084.743,797.474803 1371.41589,549.29175 1616,764" id="Stroke-13" stroke="#2264FF" stroke-width="0.5" opacity="0.900000036"></path>
                <path d="M92,0 C92,0 187.515031,210.350015 348.31932,380.116828 C509.712802,550.504308 736.679273,680.39554 891.582322,727.140432 C1143.57551,803.182588 1396.85574,569.388165 1622,808" id="Stroke-15" stroke="#2264FF" stroke-width="0.5"></path>
                <circle id="椭圆形" fill="#5480FF" fill-rule="nonzero" cx="132.5" cy="99.5" r="1.5"></circle>
                <circle id="椭圆形" fill="#5480FF" fill-rule="nonzero" cx="951.5" cy="750.5" r="1.5"></circle>
                <circle id="椭圆形-copy-72" fill="#5480FF" fill-rule="nonzero" cx="1350.5" cy="707.5" r="1.5"></circle>
                <circle id="椭圆形-copy-83" fill="#5480FF" fill-rule="nonzero" cx="1069" cy="749" r="1"></circle>
                <circle id="椭圆形-copy-84" fill="#5480FF" fill-rule="nonzero" cx="1135" cy="718" r="1"></circle>
                <circle id="椭圆形-copy-85" fill="#5480FF" fill-rule="nonzero" cx="1492" cy="704" r="1"></circle>
                <circle id="椭圆形-copy-78" fill="#5480FF" fill-rule="nonzero" cx="156" cy="187" r="1"></circle>
                <circle id="椭圆形-copy-75" fill="#5480FF" fill-rule="nonzero" cx="148" cy="126" r="1"></circle>
            </g>
        </g>
    </g>
</svg>