<?xml version="1.0" encoding="UTF-8"?>
<svg width="1440px" height="1440px" version="1.1" xmlns="http://www.w3.org/2000/svg" xmlns:xlink="http://www.w3.org/1999/xlink">
    <!-- Generator: Sketch 52.6 (67491) - http://www.bohemiancoding.com/sketch -->
    <title>分组 3@2x</title>
    <desc>Created with Sketch.</desc>
    <g id="Page-1" stroke="none" stroke-width="1" fill="none" fill-rule="evenodd">
        <g id="关于我们1.3-copy-9" transform="translate(0.000000, -103.000000)">
            <g id="分组-3" transform="translate(0.000000, 104.000000)">
                <g id="分组-23" transform="translate(1.000000, 0.000000)" stroke="#2264FF" stroke-width="0.5">
                    <circle id="椭圆形" opacity="0.600000024" cx="719" cy="719" r="719"></circle>
                    <circle id="椭圆形" opacity="0.400000006" cx="719" cy="719" r="554"></circle>
                    <circle id="椭圆形" opacity="0.300000012" cx="719" cy="719" r="403"></circle>
                    <circle id="椭圆形" opacity="0.200000003" cx="719" cy="719" r="278"></circle>
                </g>
                <g id="分组-2" transform="translate(0.000000, 14.000000)" fill="#6ACAFF" fill-rule="nonzero">
                    <ellipse id="椭圆形" cx="203.450313" cy="204.452055" rx="2.45031282" ry="2.45205473"></ellipse>
                    <ellipse id="椭圆形-copy-14" cx="1272.45031" cy="244.452055" rx="2.45031282" ry="2.45205473"></ellipse>
                    <ellipse id="椭圆形-copy-14" cx="1152.47019" cy="130.471233" rx="1.47018769" ry="1.47123284"></ellipse>
                    <ellipse id="椭圆形-copy-14" cx="955.470188" cy="25.4712328" rx="1.47018769" ry="1.47123284"></ellipse>
                    <ellipse id="椭圆形-copy-14" cx="1118.5" cy="320.501066" rx="1.5" ry="1.50106634"></ellipse>
                    <ellipse id="椭圆形-copy-16" cx="1156" cy="363.000711" rx="1" ry="1.00071089"></ellipse>
                    <path d="M1249.01987,218.980822 C1249.56118,218.980822 1250,218.541693 1250,218 C1250,217.458307 1249.56118,217.019178 1249.01987,217.019178 C1248.47857,217.019178 1248.03975,217.458307 1248.03975,218 C1248.03975,218.541693 1248.47857,218.980822 1249.01987,218.980822 Z" id="椭圆形-copy-14"></path>
                    <ellipse id="椭圆形-copy-14" cx="866.980125" cy="0.980821892" rx="1" ry="1"></ellipse>
                    <ellipse id="椭圆形-copy-7" cx="309.470188" cy="114.471233" rx="1.47018769" ry="1.47123284"></ellipse>
                    <ellipse id="椭圆形-copy-13" cx="159.470188" cy="254.471233" rx="1.47018769" ry="1.47123284"></ellipse>
                    <ellipse id="椭圆形-copy-12" cx="332.980125" cy="98.9808219" rx="1" ry="1"></ellipse>
                    <ellipse id="椭圆形-copy-17" cx="433.980125" cy="44.9808219" rx="1" ry="1"></ellipse>
                    <ellipse id="椭圆形-copy-8" cx="312.5" cy="329.501066" rx="1.5" ry="1.50106634"></ellipse>
                    <ellipse id="椭圆形-copy-9" cx="191.490063" cy="217.490411" rx="1" ry="1"></ellipse>
                    <ellipse id="椭圆形-copy-9" cx="339" cy="303.000711" rx="1" ry="1.00071089"></ellipse>
                    <ellipse id="椭圆形-copy-15" cx="353.499645" cy="289.5" rx="1" ry="1"></ellipse>
                    <ellipse id="椭圆形-copy-10" cx="63.814317" cy="19.7849332" rx="1" ry="1"></ellipse>
                    <ellipse id="椭圆形-copy-11" cx="30.4900626" cy="12.91918" rx="1" ry="1"></ellipse>
                    <ellipse id="椭圆形" transform="translate(203.450313, 1206.547945) scale(1, -1) translate(-203.450313, -1206.547945) " cx="203.450313" cy="1206.54795" rx="2.45031282" ry="2.45205473"></ellipse>
                    <ellipse id="椭圆形-copy-14" transform="translate(1272.450313, 1166.547945) scale(1, -1) translate(-1272.450313, -1166.547945) " cx="1272.45031" cy="1166.54795" rx="2.45031282" ry="2.45205473"></ellipse>
                    <ellipse id="椭圆形-copy-14" transform="translate(1151.470188, 1280.528767) scale(1, -1) translate(-1151.470188, -1280.528767) " cx="1151.47019" cy="1280.52877" rx="1.47018769" ry="1.47123284"></ellipse>
                    <ellipse id="椭圆形-copy-14" transform="translate(955.470188, 1384.528767) scale(1, -1) translate(-955.470188, -1384.528767) " cx="955.470188" cy="1384.52877" rx="1.47018769" ry="1.47123284"></ellipse>
                    <ellipse id="椭圆形-copy-14" transform="translate(1117.980125, 1091.019178) scale(1, -1) translate(-1117.980125, -1091.019178) " cx="1117.98013" cy="1091.01918" rx="1" ry="1"></ellipse>
                    <ellipse id="椭圆形-copy-16" transform="translate(1155.980125, 1048.019178) scale(1, -1) translate(-1155.980125, -1048.019178) " cx="1155.98013" cy="1048.01918" rx="1" ry="1"></ellipse>
                    <ellipse id="椭圆形-copy-14" transform="translate(1242.980125, 1199.019178) scale(1, -1) translate(-1242.980125, -1199.019178) " cx="1242.98013" cy="1199.01918" rx="1" ry="1"></ellipse>
                    <ellipse id="椭圆形-copy-14" transform="translate(866.980125, 1409.019178) scale(1, -1) translate(-866.980125, -1409.019178) " cx="866.980125" cy="1409.01918" rx="1" ry="1"></ellipse>
                    <ellipse id="椭圆形-copy-7" transform="translate(307.470188, 1294.528767) scale(1, -1) translate(-307.470188, -1294.528767) " cx="307.470188" cy="1294.52877" rx="1.47018769" ry="1.47123284"></ellipse>
                    <ellipse id="椭圆形-copy-13" transform="translate(159.470188, 1157.528767) scale(1, -1) translate(-159.470188, -1157.528767) " cx="159.470188" cy="1157.52877" rx="1.47018769" ry="1.47123284"></ellipse>
                    <ellipse id="椭圆形-copy-12" transform="translate(333.980125, 1312.019178) scale(1, -1) translate(-333.980125, -1312.019178) " cx="333.980125" cy="1312.01918" rx="1" ry="1"></ellipse>
                    <ellipse id="椭圆形-copy-17" transform="translate(433.980125, 1365.019178) scale(1, -1) translate(-433.980125, -1365.019178) " cx="433.980125" cy="1365.01918" rx="1" ry="1"></ellipse>
                    <ellipse id="椭圆形-copy-8" transform="translate(312.980125, 1082.019178) scale(1, -1) translate(-312.980125, -1082.019178) " cx="312.980125" cy="1082.01918" rx="1" ry="1"></ellipse>
                    <ellipse id="椭圆形-copy-9" transform="translate(191.490063, 1193.509589) scale(1, -1) translate(-191.490063, -1193.509589) " cx="191.490063" cy="1193.50959" rx="1" ry="1"></ellipse>
                    <ellipse id="椭圆形-copy-9" transform="translate(337.490063, 1106.509589) scale(1, -1) translate(-337.490063, -1106.509589) " cx="337.490063" cy="1106.50959" rx="1" ry="1"></ellipse>
                    <ellipse id="椭圆形-copy-15" transform="translate(346.490063, 1114.509589) scale(1, -1) translate(-346.490063, -1114.509589) " cx="346.490063" cy="1114.50959" rx="1" ry="1"></ellipse>
                    <ellipse id="椭圆形-copy-10" transform="translate(63.814317, 1391.215067) scale(1, -1) translate(-63.814317, -1391.215067) " cx="63.814317" cy="1391.21507" rx="1" ry="1"></ellipse>
                    <ellipse id="椭圆形-copy-11" transform="translate(30.490063, 1398.080820) scale(1, -1) translate(-30.490063, -1398.080820) " cx="30.4900626" cy="1398.08082" rx="1" ry="1"></ellipse>
                    <ellipse id="椭圆形" transform="translate(1432.461483, 805.447429) scale(1, -1) rotate(-232.000000) translate(-1432.461483, -805.447429) " cx="1432.46148" cy="805.447429" rx="2.45031282" ry="2.45205473"></ellipse>
                    <ellipse id="椭圆形-copy-7" transform="translate(1437.750287, 654.312247) scale(1, -1) rotate(-232.000000) translate(-1437.750287, -654.312247) " cx="1437.75029" cy="654.312247" rx="1.47018769" ry="1.47123284"></ellipse>
                    <ellipse id="椭圆形-copy-13" transform="translate(1415.518129, 889.993845) scale(1, -1) rotate(-232.000000) translate(-1415.518129, -889.993845) " cx="1415.51813" cy="889.993845" rx="1.47018769" ry="1.47123284"></ellipse>
                    <ellipse id="椭圆形-copy-12" transform="translate(1434.211772, 617.653959) scale(1, -1) rotate(-232.000000) translate(-1434.211772, -617.653959) " cx="1434.21177" cy="617.653959" rx="1" ry="1"></ellipse>
                    <ellipse id="椭圆形-copy-17" transform="translate(1405.568828, 486.790893) scale(1, -1) rotate(-232.000000) translate(-1405.568828, -486.790893) " cx="1405.56883" cy="486.790893" rx="1" ry="1"></ellipse>
                    <ellipse id="椭圆形-copy-8" transform="translate(1267.898190, 790.804324) scale(1, -1) rotate(-232.000000) translate(-1267.898190, -790.804324) " cx="1267.89819" cy="790.804324" rx="1" ry="1"></ellipse>
                    <ellipse id="椭圆形-copy-9" transform="translate(1428.550584, 830.899449) scale(1, -1) rotate(-232.000000) translate(-1428.550584, -830.899449) " cx="1428.55058" cy="830.899449" rx="1" ry="1"></ellipse>
                    <ellipse id="椭圆形-copy-9" transform="translate(1272.107073, 758.412427) scale(1, -1) rotate(-232.000000) translate(-1272.107073, -758.412427) " cx="1272.10707" cy="758.412427" rx="1" ry="1"></ellipse>
                    <ellipse id="椭圆形-copy-15" transform="translate(1273.870205, 733.395038) scale(1, -1) rotate(-232.000000) translate(-1273.870205, -733.395038) " cx="1273.87021" cy="733.395038" rx="1" ry="1"></ellipse>
                    <ellipse id="椭圆形" transform="translate(7.687024, 805.447429) scale(-1, -1) rotate(-232.000000) translate(-7.687024, -805.447429) " cx="7.68702389" cy="805.447429" rx="2.45031282" ry="2.45205473"></ellipse>
                    <ellipse id="椭圆形-copy-7" transform="translate(2.398220, 654.312247) scale(-1, -1) rotate(-232.000000) translate(-2.398220, -654.312247) " cx="2.39821976" cy="654.312247" rx="1.47018769" ry="1.47123284"></ellipse>
                    <ellipse id="椭圆形-copy-13" transform="translate(24.630378, 889.993845) scale(-1, -1) rotate(-232.000000) translate(-24.630378, -889.993845) " cx="24.6303783" cy="889.993845" rx="1.47018769" ry="1.47123284"></ellipse>
                    <ellipse id="椭圆形-copy-12" transform="translate(5.936735, 617.653959) scale(-1, -1) rotate(-232.000000) translate(-5.936735, -617.653959) " cx="5.93673504" cy="617.653959" rx="1" ry="1"></ellipse>
                    <ellipse id="椭圆形-copy-17" transform="translate(34.579679, 486.790893) scale(-1, -1) rotate(-232.000000) translate(-34.579679, -486.790893) " cx="34.5796786" cy="486.790893" rx="1" ry="1"></ellipse>
                    <ellipse id="椭圆形-copy-8" transform="translate(172.250317, 790.804324) scale(-1, -1) rotate(-232.000000) translate(-172.250317, -790.804324) " cx="172.250317" cy="790.804324" rx="1" ry="1"></ellipse>
                    <ellipse id="椭圆形-copy-9" transform="translate(11.597923, 830.899449) scale(-1, -1) rotate(-232.000000) translate(-11.597923, -830.899449) " cx="11.5979235" cy="830.899449" rx="1" ry="1"></ellipse>
                    <ellipse id="椭圆形-copy-9" transform="translate(168.041434, 758.412427) scale(-1, -1) rotate(-232.000000) translate(-168.041434, -758.412427) " cx="168.041434" cy="758.412427" rx="1" ry="1"></ellipse>
                    <ellipse id="椭圆形-copy-15" transform="translate(166.278302, 733.395038) scale(-1, -1) rotate(-232.000000) translate(-166.278302, -733.395038) " cx="166.278302" cy="733.395038" rx="1" ry="1"></ellipse>
                </g>
            </g>
        </g>
    </g>
</svg>