<?xml version="1.0" encoding="UTF-8"?>
<svg width="15px" height="15px" viewBox="0 0 15 15" version="1.1" xmlns="http://www.w3.org/2000/svg" xmlns:xlink="http://www.w3.org/1999/xlink">
    <!-- Generator: Sketch 52.4 (67378) - http://www.bohemiancoding.com/sketch -->
    <title>路径</title>
    <desc>Created with Sketch.</desc>
    <g id="Page-1" stroke="none" stroke-width="1" fill="none" fill-rule="evenodd">
        <g id="首页-联系我们弹窗" transform="translate(-1010.000000, -105.000000)" fill="#FFFFFF" fill-rule="nonzero">
            <g id="Group">
                <path d="M1017.36396,110.949747 L1023.02082,105.292893 C1023.41134,104.902369 1024.0445,104.902369 1024.43503,105.292893 C1024.82555,105.683418 1024.82555,106.316582 1024.43503,106.707107 L1018.77817,112.363961 L1024.43503,118.020815 C1024.82555,118.41134 1024.82555,119.044505 1024.43503,119.435029 C1024.0445,119.825553 1023.41134,119.825553 1023.02082,119.435029 L1017.36396,113.778175 L1011.70711,119.435029 C1011.31658,119.825553 1010.68342,119.825553 1010.29289,119.435029 C1009.90237,119.044505 1009.90237,118.41134 1010.29289,118.020815 L1015.94975,112.363961 L1010.29289,106.707107 C1009.90237,106.316582 1009.90237,105.683418 1010.29289,105.292893 C1010.68342,104.902369 1011.31658,104.902369 1011.70711,105.292893 L1017.36396,110.949747 Z" id="路径"></path>
            </g>
        </g>
    </g>
</svg>