<?xml version="1.0" encoding="UTF-8"?>
<svg width="77px" height="88px" viewBox="0 0 77 88" version="1.1" xmlns="http://www.w3.org/2000/svg" xmlns:xlink="http://www.w3.org/1999/xlink">
    <!-- Generator: Sketch 52.4 (67378) - http://www.bohemiancoding.com/sketch -->
    <title>frontpage1-icon5</title>
    <desc>Created with Sketch.</desc>
    <defs>
        <linearGradient x1="49.9999777%" y1="105.343243%" x2="49.9999777%" y2="64.7493668%" id="linearGradient-1">
            <stop stop-color="#6455F9" offset="0%"></stop>
            <stop stop-color="#0DECFF" stop-opacity="0" offset="100%"></stop>
        </linearGradient>
        <linearGradient x1="0%" y1="32.7743989%" x2="100%" y2="64.6435646%" id="linearGradient-2">
            <stop stop-color="#6455F9" offset="0%"></stop>
            <stop stop-color="#0DECFF" stop-opacity="0" offset="100%"></stop>
        </linearGradient>
        <linearGradient x1="49.9999777%" y1="11.0801425%" x2="49.9999777%" y2="100%" id="linearGradient-3">
            <stop stop-color="#6455F9" offset="0%"></stop>
            <stop stop-color="#0DECFF" stop-opacity="0" offset="100%"></stop>
        </linearGradient>
        <polygon id="path-4" points="38.4329754 0 75.9976812 21.4512472 75.9976812 64.8526077 38.4329754 86.8027211 1 64.8526077 1 21.4512472"></polygon>
        <mask id="mask-5" maskContentUnits="userSpaceOnUse" maskUnits="objectBoundingBox" x="0" y="0" width="74.9976812" height="86.8027211" fill="white">
            <use xlink:href="#path-4"></use>
        </mask>
        <linearGradient x1="100%" y1="31.6609185%" x2="0%" y2="64.7834728%" id="linearGradient-6">
            <stop stop-color="#5BE0FF" offset="0%"></stop>
            <stop stop-color="#1B2FBC" offset="100%"></stop>
        </linearGradient>
        <linearGradient x1="50%" y1="100%" x2="50%" y2="0%" id="linearGradient-7">
            <stop stop-color="#5BE0FF" offset="0%"></stop>
            <stop stop-color="#1B2FBC" offset="100%"></stop>
        </linearGradient>
    </defs>
    <g id="Page-1" stroke="none" stroke-width="1" fill="none" fill-rule="evenodd">
        <g id="0102首页" transform="translate(-1163.000000, -825.000000)">
            <g id="2" transform="translate(120.000000, 720.000000)">
                <g id="frontpage1-icon5" transform="translate(1043.000000, 105.000000)">
                    <polygon id="Path-24" points="1.4442639 64.8054358 38.0602587 86.2999897 74.8728756 64.8054358 38.0602587 43.324137"></polygon>
                    <polygon id="Path-Copy-3" fill="url(#linearGradient-1)" opacity="0.305687314" transform="translate(19.571415, 53.882450) scale(-1, 1) translate(-19.571415, -53.882450) " points="1.4663313 42.6244075 1 85.8147863 37.6271939 64.3054375 38.1428308 21.9501134"></polygon>
                    <polygon id="Path" fill="url(#linearGradient-2)" opacity="0.305687314" points="0.942642499 21.4507929 0.942642499 65.0352054 37.9839275 42.8624915 37.9839275 0"></polygon>
                    <polygon id="Path-Copy" fill="url(#linearGradient-3)" opacity="0.305687314" points="38 42.5061994 38 86.8691739 75.9315683 65.0352054 75.9315683 21.2806329"></polygon>
                    <use id="Polygon" stroke="#0068FA" mask="url(#mask-5)" stroke-width="2" opacity="0.2" stroke-dasharray="2,2" xlink:href="#path-4"></use>
                    <path d="M37.5,0.5 L37.5,84.3072562 L37.5,0.5 Z" id="Rectangle" stroke="#0068FA" opacity="0.1"></path>
                    <path d="M37.5,64.9576422 L37.5,43.349472 L36.8748378,43.833553 L37.8748378,44.0921092 L37.5,43.6080282 L37.5,64.9576422 Z" id="Rectangle" stroke="#0068FA" opacity="0.600000024"></path>
                    <path d="M37.9153872,1.35213538 L37.9155191,1.35213526 C37.9145082,1.35213625 37.9136879,1.35131753 37.9136869,1.35030659 L37.8309194,85.5967235 L37.8307874,85.5967237 C37.8317984,85.5967227 37.8326187,85.5975414 37.8326197,85.5985523 L37.9153872,1.35213538 Z" id="Rectangle" stroke="#0068FA" opacity="0.1" transform="translate(37.873153, 43.474429) rotate(-300.000000) translate(-37.873153, -43.474429) "></path>
                    <path d="M56.200173,54.2414799 L56.2000653,54.3511541 L56.7542227,53.854587 L56.2023143,53.7944532 L56.2434167,11.957629 L56.2435487,11.9576289 C56.2425377,11.9576299 56.2417174,11.9568112 56.2417164,11.9558002 L56.2006124,53.7942677 L55.7560311,53.7458278 L56.200173,54.2414799 Z" id="Rectangle" stroke="#0068FA" opacity="0.600000024" transform="translate(56.221795, 32.904637) rotate(-300.000000) translate(-56.221795, -32.904637) "></path>
                    <path d="M37.957778,1.42545327 L37.9579099,1.4254534 L38.0403898,85.3791001 C38.0403888,85.3780891 38.0412075,85.3772688 38.0422184,85.3772678 L38.0420901,85.3772677 L37.9596102,1.42362101 C37.9596112,1.42463195 37.9587925,1.42545228 37.9577816,1.42545327 Z" id="Rectangle" stroke="#0068FA" opacity="0.1" transform="translate(38.000000, 43.401361) rotate(-240.000000) translate(-38.000000, -43.401361) "></path>
                    <path d="M19.6434561,12.166784 L19.6842178,53.6568766 C19.6842168,53.6558657 19.6850356,53.6550454 19.6860465,53.6550444 L19.6859182,53.6550442 L19.6451578,12.1663499 L20.2664078,12.0078805 L19.6428245,11.5238853 L19.6430758,11.7796768 L19.2683595,12.2624642 L19.6434561,12.166784 Z" id="Rectangle" stroke="#0068FA" opacity="0.600000024" transform="translate(19.664497, 32.839219) rotate(-240.000000) translate(-19.664497, -32.839219) "></path>
                    <polygon id="Path-22-Copy" fill="url(#linearGradient-6)" points="18 31.9335914 38 43.0693393 38 66.8480726 18 54.4864274"></polygon>
                    <polygon id="Path-22-Copy-4" fill="url(#linearGradient-6)" transform="translate(48.186818, 49.387755) scale(-1, 1) translate(-48.186818, -49.387755) " points="38 31.9274376 58.3736369 43.0619632 58.3736369 66.8480726 38 54.6089873"></polygon>
                    <polygon id="Path-22-Copy-2" fill="url(#linearGradient-7)" transform="translate(38.148020, 32.236546) scale(-1, 1) translate(-38.148020, -32.236546) " points="38.2960395 21.330063 58.3615538 31.9274376 38.2960395 43.1430282 17.9344856 31.9274376"></polygon>
                    <ellipse id="Oval-2-Copy-4" fill="#475DEE" cx="1.5" cy="22.4512472" rx="1.5" ry="1.49659864"></ellipse>
                    <ellipse id="Oval-2-Copy-6" fill="#475DEE" cx="75.5" cy="22.4489796" rx="1.5" ry="1.49659864"></ellipse>
                    <ellipse id="Oval-2-Copy-4" fill="#475DEE" cx="37.5" cy="86.3038549" rx="1.5" ry="1.49659864"></ellipse>
                </g>
            </g>
        </g>
    </g>
</svg>