<?xml version="1.0" encoding="UTF-8"?>
<svg width="77px" height="88px" viewBox="0 0 77 88" version="1.1" xmlns="http://www.w3.org/2000/svg" xmlns:xlink="http://www.w3.org/1999/xlink">
    <!-- Generator: Sketch 52.4 (67378) - http://www.bohemiancoding.com/sketch -->
    <title>frontpage1-icon3</title>
    <desc>Created with Sketch.</desc>
    <defs>
        <path d="M1,22.4444444 L38.4329754,0.993197279 L75.9976812,22.4444444 M75.9976812,65.5277005 L38.4988406,88 L1,65.5277005" id="path-1"></path>
        <mask id="mask-2" maskContentUnits="userSpaceOnUse" maskUnits="objectBoundingBox" x="0" y="0" width="74.9976812" height="87.0068027" fill="white">
            <use xlink:href="#path-1"></use>
        </mask>
        <linearGradient x1="49.9999777%" y1="0%" x2="49.9999777%" y2="81.619069%" id="linearGradient-3">
            <stop stop-color="#6455F9" offset="0%"></stop>
            <stop stop-color="#0DECFF" stop-opacity="0" offset="100%"></stop>
        </linearGradient>
        <linearGradient x1="-9.88245789%" y1="100%" x2="-9.88245789%" y2="-13.1284817%" id="linearGradient-4">
            <stop stop-color="#5BF5FF" offset="0%"></stop>
            <stop stop-color="#0B1CBA" offset="100%"></stop>
        </linearGradient>
        <rect id="path-5" x="38" y="1.99092971" width="1" height="84.8072562" rx="0.5"></rect>
        <mask id="mask-6" maskContentUnits="userSpaceOnUse" maskUnits="objectBoundingBox" x="0" y="0" width="1" height="84.8072562" fill="white">
            <use xlink:href="#path-5"></use>
        </mask>
        <path d="M1.5,22 L1.5,22 C1.77614237,22 2,22.2238576 2,22.5 L2,65.8072562 L1,65.8072562 L1,22.5 C1,22.2238576 1.22385763,22 1.5,22 Z" id="path-7"></path>
        <mask id="mask-8" maskContentUnits="userSpaceOnUse" maskUnits="objectBoundingBox" x="0" y="0" width="1" height="43.8072562" fill="white">
            <use xlink:href="#path-7"></use>
        </mask>
        <path d="M75.5,22 L75.5,22 C75.7761424,22 76,22.2238576 76,22.5 L76,65.8072562 L75,65.8072562 L75,22.5 C75,22.2238576 75.2238576,22 75.5,22 Z" id="path-9"></path>
        <mask id="mask-10" maskContentUnits="userSpaceOnUse" maskUnits="objectBoundingBox" x="0" y="0" width="1" height="43.8072562" fill="white">
            <use xlink:href="#path-9"></use>
        </mask>
        <path d="M20.3544621,33.6097774 L20.3563761,33.6097755 C20.6305249,33.6095059 20.852985,33.8315288 20.8532546,34.1056776 C20.8532555,34.1065948 20.8532539,34.1075121 20.8532497,34.1084293 L20.6628073,75.873424 C20.6615531,76.1484817 20.4383647,76.3708733 20.1633043,76.3711438 L20.1613904,76.3711457 C19.8872416,76.3714154 19.6647814,76.1493924 19.6645118,75.8752436 C19.6645109,75.8743264 19.6645125,75.8734092 19.6645167,75.8724919 L19.8549591,34.1074973 C19.8562133,33.8324395 20.0794017,33.6100479 20.3544621,33.6097774 Z" id="path-11"></path>
        <mask id="mask-12" maskContentUnits="userSpaceOnUse" maskUnits="objectBoundingBox" x="0" y="0" width="1.18874329" height="42.7613707" fill="white">
            <use xlink:href="#path-11"></use>
        </mask>
        <path d="M56.8600712,33.5107241 L56.8606458,33.5107235 C57.135533,33.5104531 57.3585924,33.7330741 57.3588627,34.0079613 C57.3588632,34.0084348 57.358863,34.0089082 57.3588621,34.0093816 L57.2799476,76.211923 C57.2794317,76.4878254 57.0557674,76.7112916 56.7798646,76.7115629 L56.7798646,76.7115629 C56.5049774,76.7118333 56.281918,76.4892123 56.2816477,76.2143251 C56.2816472,76.2138517 56.2816474,76.2133783 56.2816483,76.2129048 L56.3605638,34.0097889 C56.3610792,33.734204 56.584486,33.5109951 56.8600712,33.5107241 Z" id="path-13"></path>
        <mask id="mask-14" maskContentUnits="userSpaceOnUse" maskUnits="objectBoundingBox" x="0" y="0" width="1.07721553" height="43.2008399" fill="white">
            <use xlink:href="#path-13"></use>
        </mask>
        <linearGradient x1="50%" y1="100%" x2="50%" y2="0%" id="linearGradient-15">
            <stop stop-color="#5BE0FF" offset="0%"></stop>
            <stop stop-color="#1B2FBC" offset="100%"></stop>
        </linearGradient>
    </defs>
    <g id="Page-1" stroke="none" stroke-width="1" fill="none" fill-rule="evenodd">
        <g id="0102首页" transform="translate(-682.000000, -826.000000)">
            <g id="2" transform="translate(120.000000, 720.000000)">
                <g id="frontpage1-icon3" transform="translate(562.000000, 105.000000)">
                    <use id="Shape" stroke="#0068FA" mask="url(#mask-2)" stroke-width="2" opacity="0.3" stroke-dasharray="2,2" xlink:href="#path-1"></use>
                    <polygon id="Rectangle-4-Copy-3" fill="url(#linearGradient-3)" opacity="0.305687314" points="1 22.724891 38.6096883 1 76.2193765 22.724891 76.2193765 65.5955836 38.6096883 87.8495882 1 65.5955836"></polygon>
                    <path d="M38.5029958,48.6647108 L8.90578204,66.4215805 L38.5029986,83.3892576 L68.0977813,66.4215821 L38.5029958,48.6647108 Z" id="Rectangle-4-Copy" stroke="url(#linearGradient-4)" stroke-width="8" opacity="0.300851004" transform="translate(38.501540, 66.000000) scale(-1, -1) translate(-38.501540, -66.000000) "></path>
                    <use id="Rectangle" stroke="#0068FA" mask="url(#mask-6)" stroke-width="2" opacity="0.2" stroke-dasharray="2,2" xlink:href="#path-5"></use>
                    <path d="M38.5,66.1536281 L38.5,87.8072562 L39,87.3072562 L38,87.3072562 L38.5,87.8072562 L38.5,66.1536281 Z" id="Rectangle" stroke="#0068FA" opacity="0.600000024"></path>
                    <use id="Rectangle-Copy-5" stroke="#0068FA" mask="url(#mask-8)" stroke-width="2" opacity="0.2" stroke-dasharray="2,2" xlink:href="#path-7"></use>
                    <use id="Rectangle-Copy-6" stroke="#0068FA" mask="url(#mask-10)" stroke-width="2" opacity="0.2" stroke-dasharray="2,2" xlink:href="#path-9"></use>
                    <use id="Rectangle" stroke="#0068FA" mask="url(#mask-12)" stroke-width="2" opacity="0.2" stroke-dasharray="2,2" transform="translate(20.258883, 54.990461) rotate(-300.000000) translate(-20.258883, -54.990461) " xlink:href="#path-11"></use>
                    <use id="Rectangle" stroke="#0068FA" mask="url(#mask-14)" stroke-width="2" opacity="0.2" stroke-dasharray="2,2" transform="translate(56.820255, 55.111143) scale(-1, 1) rotate(-300.000000) translate(-56.820255, -55.111143) " xlink:href="#path-13"></use>
                    <path d="M38.9786303,5.60572006 L8.9875227,22.5408226 L38.9778497,40.3107116 L68.3294254,22.5403663 L38.9786303,5.60572006 Z" id="Rectangle-4" stroke="url(#linearGradient-15)" stroke-width="8"></path>
                    <ellipse id="Oval-2" fill="#0068FA" cx="38.5" cy="61.3560091" rx="1.5" ry="1.49659864"></ellipse>
                    <ellipse id="Oval-2-Copy" fill="#475DEE" cx="38.5" cy="87.4965986" rx="1.5" ry="1.49659864"></ellipse>
                    <ellipse id="Oval-2-Copy-8" fill="#475DEE" cx="75.5" cy="42.4965986" rx="1.5" ry="1.49659864"></ellipse>
                    <ellipse id="Oval-2-Copy-10" fill="#475DEE" cx="75.5" cy="65.4965986" rx="1.5" ry="1.49659864"></ellipse>
                    <ellipse id="Oval-2-Copy-9" fill="#475DEE" cx="1.5" cy="42.4965986" rx="1.5" ry="1.49659864"></ellipse>
                    <ellipse id="Oval-2-Copy-11" fill="#475DEE" cx="1.5" cy="65.4965986" rx="1.5" ry="1.49659864"></ellipse>
                </g>
            </g>
        </g>
    </g>
</svg>