<?xml version="1.0" encoding="UTF-8"?>
<svg width="96px" height="96px" viewBox="0 0 96 96" version="1.1" xmlns="http://www.w3.org/2000/svg" xmlns:xlink="http://www.w3.org/1999/xlink">
    <!-- Generator: Sketch 52.4 (67378) - http://www.bohemiancoding.com/sketch -->
    <title>icon-play</title>
    <desc>Created with Sketch.</desc>
    <g id="Page-1" stroke="none" stroke-width="1" fill="none" fill-rule="evenodd">
        <g id="智慧金融" transform="translate(-672.000000, -2370.000000)">
            <g id="应用场景" transform="translate(120.000000, 2088.000000)">
                <g id="icon-play" transform="translate(552.000000, 282.000000)">
                    <path d="M71.5897269,7.30119015 C64.3894111,3.09930617 56.5322992,1 48,1 C39.4677008,1 31.6105889,3.09930617 24.4102731,7.30119015 C17.2049549,11.5059934 11.5059934,17.2049549 7.30119015,24.4102731 C3.09930617,31.6105889 1,39.4677008 1,48 C1,56.5322992 3.09930617,64.3894111 7.30119015,71.5897269 C11.5059934,78.7950451 17.2049549,84.4940066 24.4102731,88.6988099 C31.6105889,92.9006938 39.4677008,95 48,95 C56.5322992,95 64.3894111,92.9006938 71.5897269,88.6988099 C78.7950451,84.4940066 84.4940066,78.7950451 88.6988099,71.5897269 C92.9006938,64.3894111 95,56.5322992 95,48 C95,39.4677008 92.9006938,31.6105889 88.6988099,24.4102731 C84.4940066,17.2049549 78.7950451,11.5059934 71.5897269,7.30119015 Z" id="Shape" stroke="#FFFFFF" stroke-width="2" fill-opacity="0.1" fill="#001458" fill-rule="nonzero"></path>
                    <path d="M69,47.0177201 C69,45.8626026 68.4920686,45.0040822 67.4761905,44.4421331 L41.5714286,29.4568999 C40.5872967,28.8637315 39.5714338,28.848122 38.5238095,29.410071 C37.5079314,30.0032395 37,30.8773694 37,32.0324869 L37,62.0029534 C37,63.1580709 37.5079314,64.0322007 38.5238095,64.6253692 C39.0317486,64.8751243 39.53968,65 40.047619,65 C40.5873043,65 41.0952357,64.8595148 41.5714286,64.5785403 L67.4761905,49.5933071 C68.4920686,49.031358 69,48.1728376 69,47.0177201 Z" id="Path" fill="#FFFFFF"></path>
                </g>
            </g>
        </g>
    </g>
</svg>