<?xml version="1.0" encoding="UTF-8"?>
<svg width="315px" height="62px" viewBox="0 0 315 62" version="1.1" xmlns="http://www.w3.org/2000/svg" xmlns:xlink="http://www.w3.org/1999/xlink">
    <!-- Generator: Sketch 53.1 (72631) - https://sketchapp.com -->
    <title>jizhi</title>
    <desc>Created with Sketch.</desc>
    <defs>
        <polygon id="path-1" points="0 0.0077 25.3746 0.0077 25.3746 61.6907 0 61.6907"></polygon>
        <polygon id="path-3" points="0 108.025 314.714 108.025 314.714 0 0 0"></polygon>
    </defs>
    <g id="Page-1" stroke="none" stroke-width="1" fill="none" fill-rule="evenodd">
        <g id="发布会专题1" transform="translate(-120.000000, -314.000000)">
            <g id="banner">
                <g id="jizhi" transform="translate(120.000000, 314.000000)">
                    <path d="M36.7759,25.0001 L36.7759,10.0421 C36.7759,9.8341 36.7729,9.6321 36.7709,9.4291 L46.4489,9.4291 C44.7959,16.1341 41.7849,26.1561 41.7849,26.1561 L53.0429,26.1561 C51.5479,31.6971 49.2129,36.9651 46.1019,41.8061 C41.6629,36.3011 38.9599,31.1501 36.7759,25.0001 M51.4559,47.3941 C57.2999,38.8461 60.9539,29.0421 62.1279,18.6831 L62.1339,18.6771 L62.1289,18.6771 C62.1289,18.6761 62.1289,18.6741 62.1289,18.6731 L54.5279,18.6731 C54.5279,18.6741 54.5269,18.6761 54.5269,18.6771 L51.6599,18.6771 C52.5989,15.1951 53.6889,11.1641 54.8119,6.4891 L55.8059,1.9501 L24.7649,1.9501 L24.7649,9.4291 L29.2209,9.4291 C29.2249,9.6961 29.2289,9.9611 29.2289,10.2371 L29.2289,25.6361 C29.2289,37.1051 26.2069,48.1081 20.5449,57.7411 L26.9809,61.6901 C31.0719,54.7641 33.9399,47.2011 35.4739,39.2721 C37.2349,42.4541 39.2339,45.3921 41.3849,48.1281 C40.4509,49.2131 39.4749,50.2701 38.4519,51.2921 C36.6309,53.1131 34.7059,54.7911 32.6929,56.3271 L38.0729,61.7081 C40.0609,60.1391 41.9709,58.4471 43.7889,56.6291 C44.7589,55.6591 45.6939,54.6631 46.5929,53.6431 C46.7359,53.7711 46.8159,53.8391 46.8159,53.8391 C50.3209,57.0081 54.2989,59.6371 58.7479,61.7271 C60.3689,59.6281 62.0189,57.5701 64.0069,55.1881 C59.4899,53.3671 55.3099,50.7381 51.7369,47.6371 C51.7369,47.6371 51.6369,47.5541 51.4559,47.3941" id="Fill-1" fill="#FFFFFF"></path>
                    <path d="M157.6206,26.8734 C155.2656,26.8734 153.3556,28.7834 153.3556,31.1384 C153.3556,33.4944 155.2656,35.4034 157.6206,35.4034 C159.9766,35.4034 161.8866,33.4944 161.8866,31.1384 C161.8866,28.7834 159.9766,26.8734 157.6206,26.8734" id="Fill-3" fill="#FFFFFF"></path>
                    <g id="分组" transform="translate(0.000000, 0.025000)">
                        <mask id="mask-2" fill="white">
                            <use xlink:href="#path-1"></use>
                        </mask>
                        <g id="Clip-6"></g>
                        <path d="M20.7036,37.5697 L25.3746,32.8987 C23.3476,27.9507 20.7506,23.2447 17.6226,18.8607 L23.7276,18.8607 L23.7276,11.4637 L17.6086,11.4637 L17.6086,0.0077 L10.3476,0.0077 L10.3476,11.4637 L2.4806,11.4637 L2.4806,18.8607 L10.3476,18.8607 L10.3476,18.8607 L10.3356,18.8607 C8.7876,28.0447 5.2726,36.7197 -0.0004,44.3827 L4.3376,48.7197 C6.6356,45.4927 8.6416,42.0937 10.3476,38.5577 L10.3476,61.6907 L17.6086,61.6907 L17.6086,30.4507 C18.7836,32.7587 19.8186,35.1347 20.7036,37.5697" id="Fill-5" fill="#FFFFFF" mask="url(#mask-2)"></path>
                    </g>
                    <polygon id="Fill-7" fill="#FFFFFF" points="200.0698 32.8404 192.1968 20.8744 182.9948 20.8744 190.8678 32.8404"></polygon>
                    <polygon id="Fill-9" fill="#FFFFFF" points="233.3399 6.5191 229.0579 0.0111 220.3709 0.0111 224.6529 6.5191"></polygon>
                    <path d="M223.3521,35.9718 C229.2471,31.5068 234.2731,24.9088 236.4761,20.8748 L227.6841,20.8748 C225.1431,24.9358 222.0091,28.3688 219.3651,30.4358 C216.9481,26.6678 214.9501,22.6708 213.3921,18.5018 L213.3921,17.3388 L239.2781,17.3388 L239.2781,9.6068 L213.3921,9.6068 L213.3921,0.0008 L205.1881,0.0008 L205.1881,9.6068 L179.9071,9.6068 L179.9071,17.3388 L205.1881,17.3388 L205.1881,53.1958 C205.1881,54.4738 204.7181,54.8768 203.4401,54.8768 L194.5911,54.8768 L197.8081,61.7178 C203.6141,61.7438 206.4151,61.7158 209.4171,61.7158 C211.8171,61.7158 213.3921,60.3898 213.3921,58.4298 L213.3921,33.7998 C215.8091,38.3418 218.7741,42.5938 222.6551,46.4758 C226.5791,50.3988 230.8831,53.8028 235.4801,56.6618 L240.9791,51.1618 C236.2941,48.4288 231.9291,45.0768 227.9921,41.1388 C226.3421,39.4888 224.7941,37.7638 223.3521,35.9718" id="Fill-11" fill="#FFFFFF"></path>
                    <path d="M190.2857,36.4807 C185.1337,45.8297 178.9777,51.7997 177.2067,53.4157 L185.1617,56.6207 C186.4717,55.5327 187.9727,53.8607 187.9727,53.8607 C192.2497,49.2777 195.9467,44.0667 200.0697,36.4807 L190.2857,36.4807 Z" id="Fill-13" fill="#FFFFFF"></path>
                    <path d="M288.5322,15.6018 L288.5322,11.8078 L312.8722,11.8078 L312.8722,5.1908 L288.5322,5.1908 L288.5322,0.0108 L280.0602,0.0108 L280.0602,5.1908 L255.6532,5.1908 L255.6532,11.8078 L280.0602,11.8078 L280.0602,15.6018 L254.1732,15.6018 L254.1732,27.5388 L261.7712,27.5388 L261.7712,22.2578 L276.9412,22.2578 C273.0132,25.1548 268.4902,27.2868 263.5892,28.4278 L263.5892,34.6008 C263.6502,34.5888 263.7112,34.5748 263.7722,34.5628 L280.8502,34.5628 C274.4562,37.4878 267.3512,39.1208 259.8722,39.1208 C259.7932,39.1208 259.7152,39.1188 259.6362,39.1178 L259.6362,45.1558 L259.6362,45.1708 L281.6782,45.1708 L281.6882,53.8498 C281.6882,54.5888 281.4192,54.7908 280.2762,54.8578 C278.6002,54.8818 280.2742,54.8578 271.6172,54.8578 L274.8552,61.7428 L285.6412,61.7428 C287.9442,61.7428 289.4222,60.6588 289.4212,57.4458 L289.4072,45.1708 L304.5672,45.1708 L305.6782,45.1708 L312.4992,45.1708 L306.9662,36.7928 L299.0342,36.7928 L301.0352,39.8228 L283.9392,39.8228 C289.8032,37.0678 295.2082,33.2858 299.9272,28.5678 C300.7832,27.7108 301.6062,26.8288 302.4002,25.9288 L293.9142,25.9288 C292.6382,27.0908 291.3002,28.1868 289.9092,29.2158 L277.3972,29.2158 C280.5762,27.2778 283.4832,24.9338 286.0442,22.2578 L306.4852,22.2578 L306.4852,27.5388 L314.4192,27.5388 L314.4192,15.6018 L288.5322,15.6018 Z" id="Fill-15" fill="#FFFFFF"></path>
                    <path d="M267.4609,45.7056 C263.9639,48.6326 260.0859,51.1556 255.8819,53.2066 C255.3259,53.4776 254.7669,53.7386 254.2059,53.9906 L259.3909,59.8886 C265.1229,57.0686 270.3159,53.4756 274.8609,49.2376 L267.4609,45.7056 Z" id="Fill-17" fill="#FFFFFF"></path>
                    <path d="M294.8706,50.0051 C300.2676,52.7561 305.1046,56.2871 309.2636,60.4571 L314.3326,54.8491 C310.9396,51.4891 307.1536,48.5031 303.0266,45.9461 L294.8706,50.0051 Z" id="Fill-19" fill="#FFFFFF"></path>
                    <mask id="mask-4" fill="white">
                        <use xlink:href="#path-3"></use>
                    </mask>
                    <g id="Clip-22"></g>
                    <path d="M117.43,22.692 L127.65,22.692 L127.65,10.951 L117.43,10.951 L117.43,22.692 Z M110.034,29.752 L135.584,29.752 L135.584,3.891 L110.034,3.891 L110.034,29.752 Z" id="Fill-21" fill="#FFFFFF" mask="url(#mask-4)"></path>
                    <path d="M92.751,55.396 L121.843,55.396 L121.843,50.454 L92.751,50.454 L92.751,55.396 Z M92.751,44.671 L121.843,44.671 L121.843,39.662 L92.751,39.662 L92.751,44.671 Z M84.884,61.716 L130.046,61.716 L130.046,33.409 L84.884,33.409 L84.884,61.716 Z" id="Fill-23" fill="#FFFFFF" mask="url(#mask-4)"></path>
                    <path d="M94.5049,20.8353 L96.6529,20.8353 L107.7479,20.8353 L107.7479,14.5823 L96.7959,14.5823 C97.1479,13.1643 97.4059,11.7043 97.5679,10.2113 L106.2009,10.2113 L106.2009,4.0253 L89.2749,4.0253 C89.8129,2.6813 90.2159,1.3363 90.6189,0.0593 L90.4939,0.0323 L83.1259,0.0323 C81.9179,3.7923 79.9979,7.4193 77.5749,10.2113 L89.9629,10.2113 C89.7419,11.7243 89.3879,13.1863 88.9099,14.5823 L77.0199,14.5823 L77.0199,20.8353 L85.5939,20.8353 C83.1789,23.9963 79.8949,26.4163 75.9209,27.7253 L81.7129,33.5173 C87.3799,30.8143 91.7609,26.3483 94.5049,20.8353" id="Fill-24" fill="#FFFFFF" mask="url(#mask-4)"></path>
                    <polygon id="Fill-25" fill="#FFFFFF" mask="url(#mask-4)" points="95.6001 23.0615 99.9351 30.9595 108.3221 30.9595 103.9871 23.0615"></polygon>
                </g>
            </g>
        </g>
    </g>
</svg>