<?xml version="1.0" encoding="UTF-8"?>
<svg width="1156px" height="7px" viewBox="0 0 1156 7" version="1.1" xmlns="http://www.w3.org/2000/svg" xmlns:xlink="http://www.w3.org/1999/xlink">
    <!-- Generator: Sketch 53.1 (72631) - https://sketchapp.com -->
    <title>Group 2</title>
    <desc>Created with Sketch.</desc>
    <g id="Page-1" stroke="none" stroke-width="1" fill="none" fill-rule="evenodd">
        <g id="发布会专题1" transform="translate(-133.000000, -749.000000)" fill="#78BAF9">
            <g id="时间线" transform="translate(0.000000, 604.000000)">
                <g id="Group-2" transform="translate(121.000000, 145.565000)">
                    <g id="Group" transform="translate(-0.000100, 3.135600)">
                        <path d="M12.02,0.4808 L14.024,0.4778 C14.036,0.4778 14.046,0.4878 14.047,0.5008 C14.047,0.5128 14.037,0.5228 14.024,0.5228 L12.02,0.5198 C12.009,0.5198 12,0.5108 12,0.5008 C12,0.4898 12.009,0.4808 12.02,0.4808" id="Fill-8"></path>
                        <path d="M25.044,0.4598 L27.047,0.4568 C27.072,0.4568 27.091,0.4758 27.091,0.5008 C27.092,0.5248 27.072,0.5438 27.048,0.5438 L27.047,0.5438 L25.044,0.5408 C25.022,0.5408 25.003,0.5228 25.003,0.5008 C25.003,0.4778 25.022,0.4598 25.044,0.4598" id="Fill-10"></path>
                        <path d="M38.0674,0.4383 L40.0714,0.4353 C40.1074,0.4353 40.1364,0.4643 40.1364,0.5003 C40.1364,0.5363 40.1074,0.5653 40.0714,0.5653 L38.0674,0.5623 C38.0334,0.5623 38.0054,0.5343 38.0054,0.5003 C38.0054,0.4663 38.0334,0.4383 38.0674,0.4383" id="Fill-12"></path>
                        <path d="M51.0913,0.4173 L53.0953,0.4143 C53.1423,0.4143 53.1813,0.4523 53.1813,0.5003 C53.1813,0.5473 53.1433,0.5863 53.0953,0.5863 L51.0913,0.5833 C51.0453,0.5833 51.0083,0.5463 51.0083,0.5003 C51.0083,0.4543 51.0453,0.4173 51.0913,0.4173" id="Fill-14"></path>
                        <path d="M64.1152,0.3963 L66.1182,0.3933 C66.1782,0.3933 66.2262,0.4403 66.2262,0.5003 C66.2262,0.5593 66.1782,0.6073 66.1192,0.6073 L66.1182,0.6073 L64.1152,0.6043 C64.0572,0.6043 64.0112,0.5573 64.0112,0.5003 C64.0112,0.4423 64.0572,0.3963 64.1152,0.3963" id="Fill-16"></path>
                        <path d="M77.1387,0.3753 L79.1427,0.3723 C79.2137,0.3723 79.2707,0.4293 79.2707,0.5003 C79.2717,0.5713 79.2137,0.6283 79.1427,0.6283 L79.1427,0.6283 L77.1387,0.6253 C77.0697,0.6253 77.0137,0.5693 77.0137,0.5003 C77.0137,0.4313 77.0697,0.3753 77.1387,0.3753" id="Fill-18"></path>
                        <path d="M90.1626,0.3538 L92.1656,0.3508 C92.2486,0.3508 92.3156,0.4168 92.3156,0.4998 C92.3166,0.5828 92.2496,0.6498 92.1666,0.6498 L92.1656,0.6498 L90.1626,0.6468 C90.0816,0.6458 90.0166,0.5808 90.0166,0.4998 C90.0166,0.4188 90.0816,0.3538 90.1626,0.3538" id="Fill-20"></path>
                        <path d="M103.1865,0.3328 L105.1895,0.3298 C105.2845,0.3298 105.3605,0.4058 105.3605,0.4998 C105.3615,0.5948 105.2845,0.6708 105.1905,0.6708 L105.1895,0.6708 L103.1865,0.6678 C103.0935,0.6678 103.0195,0.5928 103.0195,0.4998 C103.0195,0.4078 103.0935,0.3328 103.1865,0.3328" id="Fill-22"></path>
                        <path d="M116.21,0.3118 L118.214,0.3088 C118.32,0.3088 118.406,0.3938 118.406,0.4998 C118.406,0.6058 118.32,0.6918 118.214,0.6918 L118.214,0.6918 L116.21,0.6888 C116.106,0.6888 116.022,0.6038 116.022,0.4998 C116.022,0.3958 116.106,0.3118 116.21,0.3118" id="Fill-24"></path>
                        <path d="M129.2339,0.2903 L131.2369,0.2873 C131.3549,0.2873 131.4509,0.3823 131.4509,0.4993 C131.4509,0.6173 131.3559,0.7133 131.2379,0.7133 L131.2369,0.7133 L129.2339,0.7103 C129.1179,0.7093 129.0239,0.6163 129.0249,0.4993 C129.0249,0.3843 129.1179,0.2903 129.2339,0.2903" id="Fill-26"></path>
                        <path d="M142.2573,0.2693 L144.2613,0.2663 C144.3903,0.2663 144.4953,0.3703 144.4953,0.4993 C144.4963,0.6293 144.3913,0.7343 144.2613,0.7343 L144.2613,0.7343 L142.2573,0.7313 C142.1303,0.7313 142.0273,0.6273 142.0273,0.4993 C142.0273,0.3723 142.1303,0.2693 142.2573,0.2693" id="Fill-28"></path>
                        <path d="M155.2813,0.2498 L157.2843,0.2488 C157.4243,0.2488 157.5363,0.3608 157.5363,0.4998 C157.5373,0.6398 157.4243,0.7518 157.2853,0.7518 L157.2843,0.7518 L155.2813,0.7508 C155.1423,0.7508 155.0313,0.6388 155.0313,0.4998 C155.0313,0.3618 155.1423,0.2498 155.2813,0.2498" id="Fill-30"></path>
                        <path d="M168.3047,0.2425 L170.3087,0.2415 C170.4517,0.2415 170.5677,0.3575 170.5677,0.5005 C170.5677,0.6435 170.4517,0.7595 170.3087,0.7595 L170.3087,0.7595 L168.3047,0.7585 C168.1627,0.7585 168.0467,0.6425 168.0467,0.5005 C168.0477,0.3575 168.1627,0.2425 168.3047,0.2425" id="Fill-32"></path>
                        <path d="M181.3286,0.2352 L183.3326,0.2342 C183.4796,0.2342 183.5986,0.3532 183.5986,0.5002 C183.5996,0.6472 183.4796,0.7662 183.3326,0.7672 L181.3286,0.7652 C181.1826,0.7652 181.0636,0.6472 181.0636,0.5002 C181.0636,0.3542 181.1826,0.2352 181.3286,0.2352" id="Fill-34"></path>
                        <path d="M194.3525,0.2278 L196.3555,0.2268 C196.5075,0.2268 196.6295,0.3488 196.6295,0.4998 C196.6295,0.6508 196.5075,0.7738 196.3565,0.7738 L196.3555,0.7738 L194.3525,0.7728 C194.2015,0.7728 194.0805,0.6508 194.0805,0.4998 C194.0805,0.3498 194.2015,0.2278 194.3525,0.2278" id="Fill-36"></path>
                        <path d="M207.376,0.2205 L209.38,0.2195 C209.535,0.2195 209.661,0.3455 209.661,0.5005 C209.661,0.6555 209.535,0.7815 209.38,0.7815 L207.376,0.7805 C207.222,0.7805 207.096,0.6545 207.097,0.5005 C207.097,0.3455 207.222,0.2205 207.376,0.2205" id="Fill-38"></path>
                        <path d="M220.3999,0.2132 L222.4029,0.2122 C222.5629,0.2122 222.6919,0.3412 222.6919,0.5002 C222.6919,0.6592 222.5629,0.7882 222.4039,0.7882 L222.4029,0.7882 L220.3999,0.7872 C220.2409,0.7872 220.1129,0.6582 220.1129,0.5002 C220.1129,0.3412 220.2409,0.2132 220.3999,0.2132" id="Fill-40"></path>
                        <path d="M233.4238,0.2059 L235.4268,0.2049 C235.5908,0.2049 235.7228,0.3369 235.7228,0.4999 C235.7228,0.6639 235.5908,0.7959 235.4278,0.7959 L235.4268,0.7959 L233.4238,0.7949 C233.2608,0.7949 233.1298,0.6629 233.1298,0.4999 C233.1298,0.3379 233.2608,0.2059 233.4238,0.2059" id="Fill-42"></path>
                        <path d="M246.4473,0.1985 L248.4513,0.1975 C248.6183,0.1975 248.7543,0.3325 248.7543,0.5005 C248.7543,0.6675 248.6183,0.8025 248.4513,0.8025 L246.4473,0.8025 C246.2803,0.8025 246.1453,0.6665 246.1463,0.5005 C246.1463,0.3335 246.2803,0.1985 246.4473,0.1985" id="Fill-44"></path>
                        <path d="M259.4712,0.1912 L261.4742,0.1902 C261.6462,0.1902 261.7852,0.3292 261.7852,0.5002 C261.7852,0.6712 261.6462,0.8102 261.4752,0.8102 L261.4742,0.8102 L259.4712,0.8092 C259.3002,0.8092 259.1622,0.6702 259.1622,0.5002 C259.1622,0.3292 259.3002,0.1912 259.4712,0.1912" id="Fill-46"></path>
                        <path d="M272.4946,0.1839 L274.4986,0.1829 C274.6736,0.1829 274.8156,0.3249 274.8156,0.4999 C274.8156,0.6759 274.6736,0.8179 274.4986,0.8179 L274.4986,0.8179 L272.4946,0.8169 C272.3206,0.8169 272.1786,0.6749 272.1786,0.4999 C272.1786,0.3259 272.3206,0.1839 272.4946,0.1839" id="Fill-48"></path>
                        <path d="M285.5186,0.1766 L287.5216,0.1756 C287.7016,0.1756 287.8466,0.3206 287.8476,0.5006 C287.8476,0.6796 287.7016,0.8246 287.5226,0.8246 L287.5216,0.8246 L285.5186,0.8236 C285.3396,0.8236 285.1956,0.6786 285.1956,0.5006 C285.1956,0.3216 285.3396,0.1766 285.5186,0.1766" id="Fill-50"></path>
                        <path d="M298.542,0.1692 L300.546,0.1682 C300.73,0.1682 300.878,0.3162 300.878,0.5002 C300.878,0.6832 300.73,0.8322 300.546,0.8322 L300.546,0.8322 L298.542,0.8312 C298.359,0.8312 298.211,0.6832 298.211,0.5002 C298.212,0.3172 298.359,0.1692 298.542,0.1692" id="Fill-52"></path>
                        <path d="M311.5659,0.1624 L313.5699,0.1614 C313.7569,0.1614 313.9089,0.3124 313.9089,0.5004 C313.9089,0.6874 313.7569,0.8394 313.5699,0.8394 L311.5659,0.8384 C311.3789,0.8384 311.2279,0.6864 311.2279,0.5004 C311.2279,0.3134 311.3789,0.1624 311.5659,0.1624" id="Fill-54"></path>
                        <path d="M324.5899,0.1551 L326.5929,0.1541 C326.7849,0.1541 326.9399,0.3091 326.9399,0.5001 C326.9409,0.6921 326.7849,0.8461 326.5939,0.8471 L326.5929,0.8471 L324.5899,0.8451 C324.3989,0.8451 324.2439,0.6911 324.2449,0.5001 C324.2449,0.3091 324.3989,0.1551 324.5899,0.1551" id="Fill-56"></path>
                        <path d="M337.6133,0.1478 L339.6173,0.1468 C339.8123,0.1468 339.9713,0.3048 339.9713,0.5008 C339.9713,0.6958 339.8133,0.8538 339.6173,0.8548 L339.6173,0.8548 L337.6133,0.8528 C337.4183,0.8528 337.2603,0.6948 337.2603,0.5008 C337.2613,0.3058 337.4183,0.1478 337.6133,0.1478" id="Fill-58"></path>
                        <path d="M350.6372,0.1404 L352.6402,0.1394 C352.8402,0.1394 353.0022,0.3004 353.0022,0.5004 C353.0022,0.6994 352.8412,0.8614 352.6412,0.8614 L352.6402,0.8614 L350.6372,0.8604 C350.4382,0.8604 350.2772,0.6994 350.2772,0.5004 C350.2772,0.3014 350.4382,0.1404 350.6372,0.1404" id="Fill-60"></path>
                        <path d="M363.6611,0.1331 L365.6641,0.1321 C365.8681,0.1321 366.0331,0.2971 366.0331,0.5001 C366.0331,0.7031 365.8681,0.8681 365.6651,0.8681 L365.6641,0.8681 L363.6611,0.8671 C363.4581,0.8671 363.2941,0.7031 363.2941,0.5001 C363.2941,0.2971 363.4581,0.1331 363.6611,0.1331" id="Fill-62"></path>
                        <path d="M376.6846,0.1258 L378.6886,0.1248 C378.8956,0.1248 379.0636,0.2928 379.0636,0.5008 C379.0646,0.7078 378.8956,0.8758 378.6886,0.8758 L376.6846,0.8748 C376.4776,0.8748 376.3096,0.7068 376.3106,0.5008 C376.3106,0.2928 376.4776,0.1258 376.6846,0.1258" id="Fill-64"></path>
                        <path d="M389.7085,0.1185 L391.7115,0.1175 C391.9235,0.1175 392.0955,0.2885 392.0955,0.5005 C392.0955,0.7115 391.9235,0.8835 391.7125,0.8835 L391.7115,0.8835 L389.7085,0.8825 C389.4975,0.8825 389.3265,0.7105 389.3265,0.5005 C389.3265,0.2895 389.4975,0.1185 389.7085,0.1185" id="Fill-66"></path>
                        <path d="M402.7319,0.1111 L404.7359,0.1101 C404.9509,0.1101 405.1259,0.2841 405.1259,0.5001 C405.1269,0.7151 404.9519,0.8901 404.7359,0.8901 L404.7359,0.8901 L402.7319,0.8891 C402.5169,0.8891 402.3429,0.7151 402.3429,0.5001 C402.3429,0.2851 402.5169,0.1111 402.7319,0.1111" id="Fill-68"></path>
                        <path d="M415.7559,0.1038 L417.7589,0.1028 C417.9789,0.1028 418.1569,0.2808 418.1569,0.4998 C418.1569,0.7198 417.9799,0.8978 417.7599,0.8978 L417.7589,0.8978 L415.7559,0.8968 C415.5369,0.8968 415.3599,0.7188 415.3599,0.4998 C415.3599,0.2808 415.5369,0.1038 415.7559,0.1038" id="Fill-70"></path>
                        <path d="M428.7793,0.0965 L430.7833,0.0955 C431.0073,0.0955 431.1883,0.2765 431.1883,0.5005 C431.1883,0.7235 431.0073,0.9055 430.7833,0.9055 L430.7833,0.9055 L428.7793,0.9045 C428.5563,0.9035 428.3763,0.7225 428.3763,0.5005 C428.3763,0.2775 428.5563,0.0965 428.7793,0.0965" id="Fill-72"></path>
                        <path d="M441.8032,0.0892 L443.8072,0.0882 C444.0342,0.0882 444.2192,0.2722 444.2192,0.5002 C444.2192,0.7282 444.0352,0.9122 443.8072,0.9122 L443.8072,0.9122 L441.8032,0.9112 C441.5762,0.9112 441.3922,0.7272 441.3922,0.5002 C441.3922,0.2732 441.5762,0.0892 441.8032,0.0892" id="Fill-74"></path>
                        <path d="M454.8272,0.0818 L456.8302,0.0808 C457.0622,0.0808 457.2502,0.2688 457.2502,0.4998 C457.2502,0.7318 457.0622,0.9198 456.8312,0.9198 L456.8302,0.9198 L454.8272,0.9188 C454.5962,0.9178 454.4092,0.7308 454.4092,0.4998 C454.4092,0.2688 454.5962,0.0818 454.8272,0.0818" id="Fill-76"></path>
                        <path d="M467.8506,0.075 L469.8546,0.074 C470.0896,0.074 470.2816,0.264 470.2816,0.5 C470.2816,0.736 470.0906,0.927 469.8546,0.927 L469.8546,0.927 L467.8506,0.926 C467.6156,0.926 467.4256,0.735 467.4256,0.5 C467.4256,0.265 467.6156,0.075 467.8506,0.075" id="Fill-78"></path>
                        <path d="M480.8745,0.0677 L482.8775,0.0667 C483.1175,0.0667 483.3125,0.2607 483.3125,0.5007 C483.3125,0.7397 483.1185,0.9337 482.8785,0.9347 L482.8775,0.9347 L480.8745,0.9327 C480.6355,0.9327 480.4415,0.7387 480.4415,0.5007 C480.4415,0.2607 480.6355,0.0677 480.8745,0.0677" id="Fill-80"></path>
                        <path d="M493.8984,0.0604 L495.9014,0.0594 C496.1454,0.0594 496.3434,0.2564 496.3434,0.5004 C496.3434,0.7444 496.1464,0.9414 495.9024,0.9414 L495.9014,0.9414 L493.8984,0.9404 C493.6554,0.9404 493.4584,0.7434 493.4584,0.5004 C493.4584,0.2574 493.6554,0.0604 493.8984,0.0604" id="Fill-82"></path>
                        <path d="M506.9219,0.053 L508.9259,0.052 C509.1729,0.052 509.3739,0.252 509.3749,0.5 C509.3749,0.748 509.1739,0.949 508.9259,0.949 L508.9259,0.949 L506.9219,0.948 C506.6749,0.948 506.4749,0.747 506.4749,0.5 C506.4749,0.253 506.6749,0.053 506.9219,0.053" id="Fill-84"></path>
                        <path d="M519.9458,0.0457 L521.9488,0.0447 C522.2008,0.0447 522.4048,0.2487 522.4048,0.4997 C522.4048,0.7517 522.2018,0.9557 521.9498,0.9557 L521.9488,0.9557 L519.9458,0.9547 C519.6948,0.9547 519.4908,0.7517 519.4908,0.4997 C519.4908,0.2487 519.6948,0.0457 519.9458,0.0457" id="Fill-86"></path>
                        <path d="M532.9692,0.0384 L534.9732,0.0374 C535.2292,0.0374 535.4362,0.2444 535.4362,0.4994 C535.4362,0.7554 535.2292,0.9634 534.9732,0.9634 L534.9732,0.9634 L532.9692,0.9624 C532.7142,0.9624 532.5082,0.7554 532.5082,0.4994 C532.5082,0.2454 532.7142,0.0384 532.9692,0.0384" id="Fill-88"></path>
                        <path d="M545.9931,0.0311 L547.9961,0.0301 C548.2561,0.0301 548.4671,0.2401 548.4671,0.5001 C548.4681,0.7601 548.2571,0.9701 547.9971,0.9701 L547.9961,0.9701 L545.9931,0.9691 C545.7341,0.9691 545.5241,0.7591 545.5241,0.5001 C545.5241,0.2411 545.7341,0.0311 545.9931,0.0311" id="Fill-90"></path>
                        <path d="M559.0166,0.0237 L561.0206,0.0227 C561.2846,0.0227 561.4976,0.2357 561.4986,0.4997 C561.4986,0.7637 561.2846,0.9777 561.0206,0.9777 L561.0206,0.9777 L559.0166,0.9767 C558.7536,0.9767 558.5406,0.7627 558.5406,0.4997 C558.5406,0.2367 558.7536,0.0237 559.0166,0.0237" id="Fill-92"></path>
                        <path d="M572.0405,0.0164 L574.0445,0.0154 C574.3115,0.0154 574.5295,0.2324 574.5295,0.4994 C574.5295,0.7674 574.3125,0.9854 574.0445,0.9854 L574.0445,0.9854 L572.0405,0.9844 C571.7735,0.9844 571.5575,0.7674 571.5575,0.4994 C571.5575,0.2324 571.7735,0.0164 572.0405,0.0164" id="Fill-94"></path>
                        <path d="M585.0644,0.0091 L587.0674,0.0081 C587.3394,0.0081 587.5604,0.2281 587.5604,0.5001 C587.5604,0.7721 587.3404,0.9921 587.0684,0.9921 L587.0674,0.9921 L585.0644,0.9911 C584.7934,0.9911 584.5734,0.7711 584.5734,0.5001 C584.5734,0.2291 584.7934,0.0091 585.0644,0.0091" id="Fill-96"></path>
                        <path d="M598.0879,0.0018 L600.0919,0.0008 C600.3679,0.0008 600.5909,0.2238 600.5909,0.4998 C600.5919,0.7758 600.3679,0.9998 600.0919,0.9998 L600.0919,0.9998 L598.0879,0.9988 C597.8129,0.9988 597.5899,0.7748 597.5899,0.4998 C597.5899,0.2248 597.8129,0.0018 598.0879,0.0018" id="Fill-98"></path>
                        <path d="M611.1118,0.0062 L613.1148,0.0072 C613.3878,0.0072 613.6088,0.2282 613.6088,0.5012 C613.6088,0.7732 613.3878,0.9932 613.1148,0.9932 L611.1118,0.9942 C610.8388,0.9952 610.6168,0.7742 610.6168,0.5012 C610.6168,0.2272 610.8388,0.0062 611.1118,0.0062 Z" id="Fill-100"></path>
                        <path d="M624.1357,0.0135 L626.1387,0.0145 C626.4077,0.0145 626.6247,0.2325 626.6247,0.5005 C626.6247,0.7685 626.4077,0.9865 626.1387,0.9865 L624.1357,0.9875 C623.8667,0.9875 623.6487,0.7695 623.6487,0.5005 C623.6477,0.2315 623.8657,0.0135 624.1347,0.0135 L624.1357,0.0135 Z" id="Fill-102"></path>
                        <path d="M637.1592,0.0208 L639.1632,0.0218 C639.4272,0.0218 639.6412,0.2358 639.6412,0.5008 C639.6412,0.7648 639.4272,0.9788 639.1632,0.9788 L637.1592,0.9798 C636.8942,0.9798 636.6802,0.7658 636.6792,0.5008 C636.6792,0.2358 636.8942,0.0208 637.1592,0.0208 Z" id="Fill-104"></path>
                        <path d="M650.1831,0.0281 L652.1861,0.0291 C652.4471,0.0291 652.6581,0.2401 652.6581,0.5011 C652.6581,0.7611 652.4471,0.9711 652.1861,0.9711 L650.1831,0.9721 C649.9221,0.9731 649.7101,0.7611 649.7101,0.5011 C649.7101,0.2391 649.9221,0.0281 650.1831,0.0281 Z" id="Fill-106"></path>
                        <path d="M663.2065,0.0355 L665.2105,0.0365 C665.4665,0.0365 665.6745,0.2445 665.6735,0.5005 C665.6735,0.7565 665.4665,0.9645 665.2105,0.9645 L663.2065,0.9655 C662.9505,0.9655 662.7415,0.7575 662.7415,0.5005 C662.7415,0.2435 662.9495,0.0355 663.2065,0.0355 Z" id="Fill-108"></path>
                        <path d="M676.2304,0.0428 L678.2344,0.0438 C678.4864,0.0438 678.6904,0.2488 678.6904,0.5008 C678.6904,0.7528 678.4864,0.9568 678.2344,0.9568 L676.2304,0.9578 C675.9774,0.9588 675.7724,0.7528 675.7724,0.5008 C675.7724,0.2478 675.9774,0.0428 676.2304,0.0428 Z" id="Fill-110"></path>
                        <path d="M689.2544,0.0501 L691.2574,0.0511 C691.5054,0.0511 691.7074,0.2521 691.7074,0.5011 C691.7064,0.7491 691.5054,0.9491 691.2574,0.9491 L689.2544,0.9501 C689.0054,0.9511 688.8034,0.7491 688.8034,0.5011 C688.8034,0.2521 689.0044,0.0501 689.2544,0.0501 Z" id="Fill-112"></path>
                        <path d="M702.2778,0.0574 L704.2818,0.0584 C704.5258,0.0584 704.7228,0.2564 704.7228,0.5004 C704.7228,0.7444 704.5258,0.9424 704.2818,0.9424 L702.2778,0.9434 C702.0328,0.9434 701.8348,0.7454 701.8348,0.5004 C701.8348,0.2554 702.0328,0.0574 702.2778,0.0574 Z" id="Fill-114"></path>
                        <path d="M715.3017,0.0647 L717.3047,0.0657 C717.5457,0.0657 717.7397,0.2607 717.7397,0.5007 C717.7397,0.7407 717.5457,0.9347 717.3047,0.9347 L715.3017,0.9357 C715.0607,0.9367 714.8657,0.7407 714.8657,0.5007 C714.8657,0.2597 715.0607,0.0647 715.3017,0.0647 Z" id="Fill-116"></path>
                        <path d="M728.3252,0.0721 L730.3292,0.0731 C730.5652,0.0731 730.7562,0.2641 730.7562,0.5011 C730.7562,0.7371 730.5652,0.9271 730.3292,0.9271 L728.3252,0.9281 C728.0892,0.9291 727.8972,0.7371 727.8972,0.5011 C727.8962,0.2641 728.0882,0.0721 728.3252,0.0721 Z" id="Fill-118"></path>
                        <path d="M741.3491,0.0794 L743.3531,0.0804 C743.5841,0.0804 743.7721,0.2684 743.7721,0.5004 C743.7721,0.7324 743.5841,0.9204 743.3531,0.9204 L741.3491,0.9214 C741.1171,0.9214 740.9281,0.7334 740.9281,0.5004 C740.9281,0.2674 741.1161,0.0794 741.3491,0.0794 Z" id="Fill-120"></path>
                        <path d="M754.373,0.0867 L756.376,0.0877 C756.604,0.0877 756.789,0.2727 756.789,0.5007 C756.789,0.7287 756.604,0.9127 756.376,0.9127 L754.373,0.9137 C754.144,0.9137 753.959,0.7287 753.959,0.5007 C753.959,0.2727 754.144,0.0867 754.373,0.0867 Z" id="Fill-122"></path>
                        <path d="M767.3965,0.094 L769.4005,0.095 C769.6245,0.095 769.8055,0.277 769.8055,0.5 C769.8055,0.724 769.6245,0.906 769.4005,0.906 L767.3965,0.906 C767.1725,0.906 766.9905,0.725 766.9905,0.5 C766.9895,0.276 767.1715,0.094 767.3965,0.094 Z" id="Fill-124"></path>
                        <path d="M780.4204,0.1014 L782.4234,0.1024 C782.6434,0.1024 782.8214,0.2804 782.8214,0.5004 C782.8214,0.7204 782.6434,0.8984 782.4234,0.8984 L780.4204,0.8994 C780.2004,0.8994 780.0214,0.7214 780.0214,0.5004 C780.0214,0.2804 780.1994,0.1014 780.4204,0.1014 Z" id="Fill-126"></path>
                        <path d="M793.4438,0.1087 L795.4478,0.1097 C795.6638,0.1097 795.8388,0.2847 795.8378,0.5007 C795.8378,0.7157 795.6638,0.8907 795.4478,0.8907 L793.4438,0.8917 C793.2278,0.8917 793.0518,0.7167 793.0518,0.5007 C793.0518,0.2837 793.2278,0.1087 793.4438,0.1087" id="Fill-128"></path>
                        <path d="M806.4678,0.116 L808.4718,0.117 C808.6828,0.117 808.8548,0.289 808.8548,0.5 C808.8548,0.712 808.6828,0.884 808.4718,0.884 L806.4678,0.885 C806.2558,0.885 806.0838,0.713 806.0828,0.5 C806.0828,0.288 806.2548,0.116 806.4678,0.116 Z" id="Fill-130"></path>
                        <path d="M819.4917,0.1233 L821.4947,0.1243 C821.7027,0.1243 821.8707,0.2923 821.8707,0.5003 C821.8707,0.7083 821.7027,0.8763 821.4947,0.8763 L819.4917,0.8773 C819.2837,0.8773 819.1147,0.7083 819.1147,0.5003 C819.1147,0.2923 819.2827,0.1233 819.4917,0.1233 Z" id="Fill-132"></path>
                        <path d="M832.5151,0.1307 L834.5191,0.1317 C834.7231,0.1317 834.8871,0.2977 834.8871,0.5007 C834.8871,0.7037 834.7231,0.8687 834.5191,0.8687 L832.5151,0.8697 C832.3111,0.8697 832.1451,0.7047 832.1451,0.5007 C832.1451,0.2967 832.3101,0.1307 832.5151,0.1307 Z" id="Fill-134"></path>
                        <path d="M845.539,0.138 L847.542,0.139 C847.742,0.139 847.904,0.301 847.904,0.5 C847.904,0.7 847.742,0.862 847.542,0.862 L845.539,0.863 C845.339,0.863 845.177,0.7 845.176,0.5 C845.176,0.301 845.338,0.138 845.539,0.138 Z" id="Fill-136"></path>
                        <path d="M858.5625,0.1453 L860.5665,0.1463 C860.7615,0.1463 860.9205,0.3053 860.9195,0.5003 C860.9195,0.6963 860.7615,0.8543 860.5665,0.8543 L858.5625,0.8553 C858.3665,0.8553 858.2075,0.6963 858.2075,0.5003 C858.2075,0.3043 858.3665,0.1453 858.5625,0.1453" id="Fill-138"></path>
                        <path d="M871.5864,0.1526 L873.5904,0.1536 C873.7814,0.1536 873.9364,0.3086 873.9364,0.5006 C873.9364,0.6916 873.7814,0.8466 873.5904,0.8466 L871.5864,0.8476 C871.3944,0.8476 871.2384,0.6926 871.2384,0.5006 C871.2384,0.3086 871.3944,0.1526 871.5864,0.1526 Z" id="Fill-140"></path>
                        <path d="M884.6103,0.16 L886.6133,0.161 C886.8013,0.161 886.9533,0.313 886.9533,0.5 C886.9523,0.688 886.8013,0.84 886.6133,0.84 L884.6103,0.841 C884.4223,0.841 884.2693,0.688 884.2693,0.5 C884.2693,0.312 884.4223,0.16 884.6103,0.16 Z" id="Fill-142"></path>
                        <path d="M897.6338,0.1673 L899.6378,0.1683 C899.8208,0.1683 899.9688,0.3173 899.9688,0.5003 C899.9688,0.6843 899.8208,0.8323 899.6378,0.8323 L897.6338,0.8333 C897.4498,0.8333 897.3008,0.6843 897.3008,0.5003 C897.3008,0.3163 897.4498,0.1673 897.6338,0.1673" id="Fill-144"></path>
                        <path d="M910.6577,0.1746 L912.6607,0.1756 C912.8407,0.1756 912.9857,0.3206 912.9857,0.5006 C912.9857,0.6796 912.8407,0.8246 912.6607,0.8246 L910.6577,0.8256 C910.4777,0.8256 910.3317,0.6806 910.3317,0.5006 C910.3317,0.3206 910.4777,0.1746 910.6577,0.1746 Z" id="Fill-146"></path>
                        <path d="M923.6816,0.1819 L925.6846,0.1829 C925.8606,0.1829 926.0026,0.3259 926.0016,0.4999 C926.0016,0.6759 925.8606,0.8179 925.6846,0.8179 L923.6816,0.8189 C923.5056,0.8189 923.3626,0.6759 923.3626,0.4999 C923.3626,0.3249 923.5056,0.1819 923.6816,0.1819 Z" id="Fill-148"></path>
                        <path d="M936.7051,0.1893 L938.7091,0.1903 C938.8801,0.1903 939.0181,0.3293 939.0181,0.5003 C939.0181,0.6713 938.8801,0.8103 938.7091,0.8103 L936.7051,0.8113 C936.5331,0.8113 936.3941,0.6723 936.3941,0.5003 C936.3941,0.3293 936.5331,0.1893 936.7051,0.1893 Z" id="Fill-150"></path>
                        <path d="M949.729,0.1966 L951.732,0.1976 C951.899,0.1976 952.035,0.3336 952.035,0.5006 C952.035,0.6676 951.899,0.8026 951.732,0.8026 L949.729,0.8036 C949.561,0.8036 949.425,0.6686 949.425,0.5006 C949.425,0.3326 949.561,0.1966 949.729,0.1966 Z" id="Fill-152"></path>
                        <path d="M962.7524,0.2039 L964.7564,0.2049 C964.9194,0.2049 965.0514,0.3369 965.0514,0.4999 C965.0514,0.6629 964.9194,0.7959 964.7564,0.7959 L962.7524,0.7969 C962.5884,0.7969 962.4564,0.6639 962.4564,0.4999 C962.4564,0.3369 962.5884,0.2039 962.7524,0.2039" id="Fill-154"></path>
                        <path d="M975.7763,0.2112 L977.7793,0.2122 C977.9393,0.2122 978.0683,0.3412 978.0683,0.5002 C978.0683,0.6592 977.9393,0.7882 977.7793,0.7882 L975.7763,0.7892 C975.6163,0.7892 975.4873,0.6602 975.4873,0.5002 C975.4863,0.3402 975.6163,0.2112 975.7763,0.2112 Z" id="Fill-156"></path>
                        <path d="M988.8003,0.2186 L990.8033,0.2196 C990.9583,0.2196 991.0843,0.3456 991.0843,0.5006 C991.0843,0.6556 990.9583,0.7806 990.8033,0.7806 L988.8003,0.7816 C988.6443,0.7816 988.5183,0.6556 988.5183,0.5006 C988.5183,0.3446 988.6443,0.2186 988.8003,0.2186 Z" id="Fill-158"></path>
                        <path d="M1001.8237,0.2259 L1003.8277,0.2269 C1003.9787,0.2269 1004.1007,0.3499 1004.1007,0.4999 C1004.1007,0.6509 1003.9787,0.7739 1003.8277,0.7739 L1001.8237,0.7749 C1001.6727,0.7749 1001.5497,0.6519 1001.5497,0.4999 C1001.5497,0.3489 1001.6717,0.2259 1001.8237,0.2259 Z" id="Fill-160"></path>
                        <path d="M1014.8476,0.2332 L1016.8506,0.2342 C1016.9976,0.2342 1017.1176,0.3542 1017.1176,0.5002 C1017.1166,0.6472 1016.9976,0.7662 1016.8506,0.7662 L1014.8476,0.7672 C1014.7006,0.7672 1014.5806,0.6482 1014.5796,0.5002 C1014.5796,0.3532 1014.6996,0.2332 1014.8476,0.2332 Z" id="Fill-162"></path>
                        <path d="M1027.8711,0.2405 L1029.8751,0.2415 C1030.0171,0.2415 1030.1331,0.3575 1030.1331,0.5005 C1030.1331,0.6435 1030.0171,0.7595 1029.8751,0.7595 L1027.8711,0.7605 C1027.7281,0.7605 1027.6111,0.6435 1027.6111,0.5005 C1027.6111,0.3575 1027.7271,0.2405 1027.8711,0.2405" id="Fill-164"></path>
                        <path d="M1040.895,0.2479 L1042.898,0.2489 C1043.038,0.2489 1043.15,0.3619 1043.15,0.4999 C1043.15,0.6399 1043.038,0.7519 1042.898,0.7519 L1040.895,0.7529 C1040.755,0.7529 1040.643,0.6399 1040.643,0.4999 C1040.643,0.3609 1040.755,0.2479 1040.895,0.2479 Z" id="Fill-166"></path>
                        <path d="M1053.9189,0.2645 L1055.9219,0.2675 C1056.0509,0.2675 1056.1549,0.3725 1056.1539,0.5005 C1056.1539,0.6295 1056.0509,0.7325 1055.9219,0.7325 L1053.9189,0.7365 C1053.7889,0.7365 1053.6829,0.6305 1053.6829,0.5005 C1053.6829,0.3705 1053.7879,0.2645 1053.9179,0.2645 L1053.9189,0.2645 Z" id="Fill-168"></path>
                        <path d="M1066.9424,0.2859 L1068.9464,0.2889 C1069.0624,0.2889 1069.1574,0.3839 1069.1574,0.5009 C1069.1564,0.6179 1069.0624,0.7119 1068.9464,0.7109 L1066.9424,0.7149 C1066.8244,0.7149 1066.7274,0.6189 1066.7274,0.5009 C1066.7274,0.3819 1066.8234,0.2859 1066.9414,0.2859 L1066.9424,0.2859 Z" id="Fill-170"></path>
                        <path d="M1079.9658,0.3069 L1081.9698,0.3099 C1082.0738,0.3109 1082.1588,0.3959 1082.1588,0.5009 C1082.1588,0.6049 1082.0738,0.6899 1081.9698,0.6899 L1079.9658,0.6939 C1079.8598,0.6939 1079.7728,0.6069 1079.7728,0.5009 C1079.7728,0.3939 1079.8588,0.3069 1079.9658,0.3069" id="Fill-172"></path>
                        <path d="M1092.9902,0.3284 L1094.9932,0.3314 C1095.0872,0.3314 1095.1622,0.4074 1095.1622,0.5004 C1095.1622,0.5934 1095.0872,0.6694 1094.9932,0.6684 L1092.9902,0.6724 C1092.8942,0.6724 1092.8182,0.5954 1092.8172,0.5004 C1092.8172,0.4054 1092.8942,0.3284 1092.9892,0.3284 L1092.9902,0.3284 Z" id="Fill-174"></path>
                        <path d="M1106.0136,0.3499 L1108.0176,0.3529 C1108.0986,0.3529 1108.1636,0.4189 1108.1636,0.5009 C1108.1636,0.5819 1108.0986,0.6479 1108.0176,0.6479 L1106.0136,0.6509 C1105.9306,0.6509 1105.8636,0.5839 1105.8636,0.5009 C1105.8626,0.4169 1105.9296,0.3499 1106.0126,0.3499 L1106.0136,0.3499 Z" id="Fill-176"></path>
                        <path d="M1119.0371,0.3709 L1121.0411,0.3739 C1121.1101,0.3739 1121.1671,0.4309 1121.1671,0.4999 C1121.1671,0.5699 1121.1101,0.6259 1121.0411,0.6259 L1119.0371,0.6299 C1118.9661,0.6299 1118.9081,0.5719 1118.9081,0.4999 C1118.9081,0.4289 1118.9661,0.3709 1119.0371,0.3709" id="Fill-178"></path>
                        <path d="M1132.0605,0.3924 L1134.0645,0.3954 C1134.1235,0.3954 1134.1685,0.4424 1134.1685,0.5004 C1134.1685,0.5584 1134.1235,0.6054 1134.0645,0.6054 L1132.0605,0.6084 C1132.0005,0.6084 1131.9535,0.5604 1131.9535,0.5004 C1131.9535,0.4404 1132.0005,0.3924 1132.0605,0.3924" id="Fill-180"></path>
                        <path d="M1145.0849,0.4134 L1147.0879,0.4164 C1147.1349,0.4164 1147.1719,0.4544 1147.1719,0.5004 C1147.1719,0.5464 1147.1349,0.5834 1147.0879,0.5834 L1145.0849,0.5874 C1145.0369,0.5874 1144.9979,0.5484 1144.9979,0.5004 C1144.9979,0.4524 1145.0369,0.4134 1145.0839,0.4134 L1145.0849,0.4134 Z" id="Fill-182"></path>
                        <path d="M1158.1084,0.4349 L1160.1124,0.4379 C1160.1464,0.4379 1160.1734,0.4659 1160.1734,0.4999 C1160.1734,0.5349 1160.1464,0.5619 1160.1124,0.5619 L1158.1084,0.5659 C1158.0724,0.5659 1158.0434,0.5369 1158.0434,0.4999 C1158.0434,0.4639 1158.0724,0.4349 1158.1084,0.4349" id="Fill-184"></path>
                    </g>
                </g>
            </g>
        </g>
    </g>
</svg>