<svg height="28" viewBox="0 0 28 28" width="28" xmlns="http://www.w3.org/2000/svg"><path d="m6.27762264 9.34458975v18.22683925h-5.80078126v-18.22683925zm.36914063-5.6280654c.01171875.89509537-.28417968 1.64305178-.88769532 2.24386922s-1.39746096.90122616-2.38183596.90122616h-.03515624c-.9609375 0-1.734375-.30040872-2.32031249-.90122616-.58593748-.60081744-.87890624-1.34877385-.87890626-2.24386922 0-.90735694.30175782-1.65837874.90527345-2.2530654.60351564-.59468665 1.39160157-.89202997 2.36425779-.89202995s1.7519531.29734334 2.33789062.89202995c.58593753.59468661.88476567 1.34570841.89648441 2.2530654zm20.49609373 13.40803815v10.4468665h-5.7832031v-9.7479564c0-1.2874659-.2373047-2.2959809-.7119141-3.0255449-.4746094-.7295641-1.2158203-1.0943461-2.2236328-1.0943461-.7382813 0-1.3564453.2115123-1.8544922.6345368s-.8701172.947207-1.1162109 1.5725477c-.1289063.3678474-.1933594.8644414-.1933594 1.489782v10.1709809h-5.78320311c.0234375-4.8923706.03515625-8.8589918.03515625-11.8998637 0-3.040872-.00585938-4.8555859-.01757814-5.4441417l-.01757811-.88283385h5.78320311v2.64850135h-.0351563c.234375-.3923706.4746094-.7356948.7207032-1.0299727.2460937-.294278.5771484-.6130791.993164-.9564033.4160156-.34332422.9257813-.6100136 1.5292969-.80006812.6035157-.19005452 1.2744141-.28508177 2.0126953-.28508175 2.0039063 0 3.6152344.69584469 4.8339844 2.08753407 1.21875 1.3916894 1.828125 3.4301771 1.828125 6.1154632z" fill="#fff"/></svg>