<?xml version="1.0" encoding="UTF-8"?>
<svg width="109px" height="18px" viewBox="0 0 109 18" version="1.1" xmlns="http://www.w3.org/2000/svg" xmlns:xlink="http://www.w3.org/1999/xlink">
    <!-- Generator: Sketch 53.1 (72631) - https://sketchapp.com -->
    <title>Combined Shape</title>
    <desc>Created with Sketch.</desc>
    <g id="Page-1" stroke="none" stroke-width="1" fill="none" fill-rule="evenodd">
        <g id="0102首页-copy" transform="translate(-120.000000, -21.000000)" fill="#FFFFFF">
            <g id="logo-new" transform="translate(120.000000, 21.000000)">
                <path d="M107.243074,4.1984261 L108.960696,4.1984261 C108.967018,4.26977952 108.978136,4.33675542 108.978136,4.40351245 C108.978354,6.52135181 108.982278,8.63941004 108.974866,10.7570305 C108.972032,11.5585526 108.788912,12.3198016 108.35531,13.0015988 C107.66316,14.0891912 106.630058,14.5972012 105.380918,14.6937253 C104.54467,14.7585124 103.724336,14.6602373 102.962862,14.2787373 C101.871554,13.7319863 101.2932,12.8039542 101.083702,11.6288116 C101.018084,11.2608819 100.995848,10.8809141 100.994104,10.5064181 C100.985602,8.49363896 100.989744,6.48085984 100.989526,4.46808072 L100.989526,4.20105261 L102.742028,4.20105261 L102.742028,4.48296426 C102.743336,6.65311486 102.734398,8.82370321 102.751402,10.9938538 C102.757724,11.8067574 103.024774,12.5332052 103.714308,13.0212976 C105.11474,14.0128036 107.00916,13.1189161 107.197076,11.3862976 C107.226288,11.1175185 107.240458,10.8456751 107.240894,10.575145 C107.2446,8.54485582 107.243074,6.51456667 107.243074,4.48405863 L107.243074,4.1984261 Z M91.613935,5.47854137 L88.840321,5.47854137 L88.840321,4.21059558 L96.186267,4.21059558 L96.186267,5.4737261 L93.386057,5.4737261 L93.386057,9.97993494 L93.386057,14.4865815 L91.613935,14.4865815 L91.613935,5.47854137 Z M71.7742346,14.4879167 L71.7742346,12.7675552 C71.7742346,11.9362661 71.7816466,11.104758 71.7679126,10.2736878 C71.7650786,10.10975 71.7136306,9.92742671 71.6290466,9.78690863 C70.5671686,8.02036446 69.4950446,6.2599488 68.4257546,4.49778213 C68.3725626,4.41023193 68.3224226,4.32093072 68.2459046,4.18960542 C68.8985966,4.18960542 69.5116126,4.18676004 70.1248466,4.19507731 C70.1747686,4.19595281 70.2388606,4.26511747 70.2706886,4.31808534 C71.3245006,6.07937651 72.3765686,7.84176205 73.4244946,9.60655522 C73.4667866,9.67747088 73.4901126,9.7711496 73.4903306,9.85432229 C73.4933826,11.3682841 73.4914206,12.8820271 73.4896766,14.395989 C73.4896766,14.4207219 73.4781226,14.4454548 73.4676586,14.4879167 L71.7742346,14.4879167 Z M73.924216,9.13774578 C73.316214,8.53233614 73.156202,7.51368956 73.54555,6.80497068 C73.986564,6.00235422 74.434554,5.20345863 74.869464,4.39755904 C74.955138,4.2379988 75.054764,4.18109116 75.23505,4.1852498 C75.77351,4.1977257 76.312842,4.18962731 76.905366,4.18962731 C75.899732,5.85877189 74.9135,7.49574177 73.924216,9.13774578 Z M82.2766898,14.4856185 L82.2766898,4.20766265 L84.0010698,4.20766265 L84.0010698,14.4856185 L82.2766898,14.4856185 Z M62.4639778,17.9442892 L62.4639778,1.65201186e-13 L63.0763398,1.65201186e-13 L63.0763398,17.9442892 L62.4639778,17.9442892 Z M43.8481948,14.6926747 L44.1939428,14.6926747 C47.0268528,14.6926747 49.8597628,14.6786667 52.6922368,14.7053695 C53.2215408,14.7104036 53.6265848,14.6066566 53.9566368,14.1783173 C54.0806788,14.017006 54.1578508,13.8819598 54.1576328,13.6727149 C54.1510928,10.3035643 54.1530548,6.93419478 54.1530548,3.56504418 L54.1530548,3.26430924 L43.8481948,3.26430924 L43.8481948,14.6926747 Z M42.3219768,15.9006486 L42.3219768,2.04364056 L55.6760028,2.04364056 L55.6760028,2.30979317 C55.6762208,6.28413454 55.6777468,10.2584759 55.6698988,14.2328173 C55.6696808,14.3626104 55.6034088,14.5215141 55.5146828,14.616506 C55.1451728,15.0120141 54.7597488,15.3932952 54.3686568,15.7677912 C54.2901768,15.8426466 54.1617748,15.9048072 54.0562628,15.9050261 C50.1937388,15.9120301 46.3314328,15.9109357 42.4689088,15.9107169 C42.4268348,15.9107169 42.3847608,15.9050261 42.3219768,15.9006486 Z M52.7753266,5.56361827 L51.0104758,5.56361827 C49.7363486,5.55945991 48.4620034,5.5550827 47.1878762,5.5509243 C46.9652242,5.73900321 46.7430822,5.92701727 46.4943442,6.13735663 C46.7993262,6.13735663 47.0750962,6.1491759 47.3495582,6.13341687 C47.5416162,6.12247309 47.6508342,6.19251325 47.7809802,6.33937871 C48.1197522,6.72153534 48.4918782,7.07501928 48.8655302,7.42368795 C48.9211202,7.47556145 49.0857102,7.48322209 49.1515462,7.43879036 C49.8938362,6.93822209 50.5406422,6.33828434 51.0104322,5.56368394 L52.7753602,5.56368394 L52.7753266,5.56361827 Z M47.1878762,5.5509243 L52.7648079,5.54542955 C52.7434733,5.51313611 52.7221387,5.50765181 52.7008042,5.50765181 C51.1338922,5.50570838 49.5671522,5.50376495 48.000431,5.5041198 C47.8026719,5.50414526 47.6049129,5.50420489 47.4071538,5.50430301 C47.3705559,5.50430301 47.333958,5.51189809 47.2973981,5.52157021 C47.2608546,5.5311818 47.2243383,5.54281882 47.1878762,5.5509243 Z M44.5920762,10.2484952 L44.5920762,9.3646759 C45.1566962,9.19023213 45.7184822,9.03483052 46.2671882,8.84178233 C46.8156762,8.64895301 47.3510842,8.41847711 47.8976102,8.20222811 C47.4313082,7.80847108 46.9876782,7.44688876 46.5597442,7.06757751 C46.3384742,6.87146506 46.1756282,6.53023815 45.9299422,6.46304337 C45.6886162,6.39738072 45.3764402,6.59874618 45.0939122,6.67688474 C44.9870922,6.70643293 44.8759122,6.71978434 44.7337762,6.74670602 C44.7337762,6.45910361 44.7261462,6.19886064 44.7396622,5.9401498 C44.7427142,5.88192892 44.8083322,5.80335261 44.8652302,5.77555542 C45.6622382,5.38595703 46.2514922,4.79105341 46.6489062,3.99675422 C46.6831322,3.92868394 46.7849382,3.85492289 46.8573142,3.85295301 C47.3005082,3.83960161 47.7445742,3.84616787 48.2416142,3.84616787 C48.1271642,4.11275823 48.0268842,4.34607952 47.9154862,4.60522811 L52.9283962,4.60522811 C52.9617502,5.11301928 52.9785362,5.57265783 52.6670142,6.01391084 C52.0853902,6.83753936 51.4041402,7.54997912 50.5824982,8.12934257 C50.5131742,8.17815181 50.4462482,8.23046305 50.3477122,8.30378635 C51.3407022,8.78465582 52.3642122,9.07641687 53.3949162,9.350449 L53.3949162,10.2692884 C53.0044782,10.1806438 52.6247222,10.1268004 52.2667662,10.0068566 C51.3108362,9.68686064 50.3658062,9.33490884 49.4124922,9.00681446 C49.3056722,8.97004337 49.1569962,8.96719799 49.0571522,9.01316185 C47.7164522,9.62907751 46.3033762,9.98781446 44.8565102,10.2307663 C44.7804282,10.243461 44.7019482,10.24171 44.5920762,10.2484952 Z M46.4163002,13.1832217 L46.4163002,12.2186373 C48.0401822,12.3703181 49.6464062,12.5206855 51.2617862,12.6717096 L51.2617862,14.2495831 C49.6363782,13.8917217 48.0281922,13.5380189 46.4163002,13.1832217 Z M47.3240522,10.2132124 C48.5043042,10.3110498 49.6437902,10.405604 50.7967922,10.5012526 L50.7967922,12.0769373 C50.7006542,12.0563631 50.6110562,12.0410418 50.5234202,12.0180598 C49.5310842,11.7584735 48.5402742,11.4925398 47.5455402,11.2421462 C47.3785522,11.2001221 47.3105362,11.1397124 47.3210002,10.9654876 C47.3340802,10.7483631 47.3240522,10.5299253 47.3240522,10.2132124 Z M28.375623,12.7667235 C28.375623,12.3305046 28.366031,11.893848 28.383035,11.4580669 C28.386741,11.3617616 28.467183,11.2527616 28.540213,11.176593 C29.672069,9.99597851 30.581347,8.67353273 31.081003,7.09981787 C31.251697,6.56182189 31.364839,6.00544036 31.514605,5.41666526 L29.054475,5.41666526 L29.054475,4.0931251 L38.911999,4.0931251 L38.911999,5.38799257 L33.343189,5.38799257 C33.293921,5.59658092 33.266017,5.7942255 33.200181,5.97808092 C32.939671,6.70868735 32.665427,7.43425964 32.400339,8.16311506 C32.353469,8.29203273 32.293955,8.42773554 32.293301,8.56059297 C32.286325,10.1971251 32.288941,11.8336572 32.290249,13.4701894 C32.290249,13.5281914 32.300277,13.5859745 32.312921,13.7214584 C33.036245,13.3771673 33.721201,13.0510428 34.429265,12.7141934 C34.429265,13.1738319 34.433189,13.6258098 34.424469,14.07735 C34.423379,14.1327255 34.367135,14.2034223 34.316777,14.2386612 C33.251193,14.9826191 32.079879,15.5061693 30.816787,15.9399805 L30.816787,10.6534805 C30.025665,11.385838 29.243481,12.110097 28.461079,12.8345749 C28.432521,12.8120307 28.403963,12.7894865 28.375623,12.7667235 Z M26.52731,15.9473785 L26.52731,8.13987048 C25.884646,8.71857731 25.253318,9.28699699 24.62199,9.85563554 L24.536752,9.81295482 C24.536752,9.50521586 24.55986,9.19528815 24.530648,8.89039458 C24.49664,8.53297088 24.617412,8.27951305 24.860482,8.01401707 C26.180036,6.57206526 26.891806,4.83879016 27.197878,2.92362952 C27.262406,2.51980422 27.30557,2.11291466 27.359416,1.70077209 L29.225932,1.70077209 C29.10407,2.33835643 29.028642,2.96521586 28.858602,3.56471586 C28.66153,4.25942671 28.377258,4.92896687 28.139856,5.61251506 C28.081214,5.78170582 28.023444,5.96315361 28.023008,6.13912952 C28.015814,9.29859739 28.014506,12.4582841 28.023008,15.617752 C28.023662,15.876244 27.973304,15.974738 27.695136,15.9543825 C27.31647,15.9265853 26.934098,15.9473785 26.52731,15.9473785 Z M36.1310166,11.2946544 C36.8137926,12.3321243 37.6910246,13.118544 38.7267426,13.7296444 C38.8854466,13.8233231 38.9408186,13.9213793 38.9353686,14.0997629 C38.9229426,14.5011805 38.9314446,14.9032548 38.9314446,15.3445078 C37.3265286,14.6517669 35.9330726,13.7265801 34.8557166,12.3673633 C33.6608586,10.8599677 33.1045226,9.11334116 32.9541026,7.1983994 L34.7994726,7.1983994 C34.8984446,8.23214839 35.1027106,9.25254598 35.5633446,10.2626564 C36.2829626,9.35169659 36.5423826,8.31378896 36.6428806,7.20233916 L38.4860706,7.20233916 C38.1154706,8.80691546 37.3454946,10.1678833 36.1310166,11.2946544 Z M34.7862836,1.70613454 L34.7862836,3.47355422 C34.1765376,3.47355422 33.5763836,3.50113253 32.9823336,3.45341767 C32.8399796,3.44203614 32.6239416,3.19208032 32.6041036,3.0314257 C32.5509116,2.60155422 32.5860096,2.16095783 32.5860096,1.70613454 L34.7862836,1.70613454 Z M17.5869556,0.061701004 L17.5869556,1.33380542 C17.5869556,3.60857851 17.5897896,5.88357048 17.5799796,8.15834357 C17.5795436,8.29579739 17.5145796,8.46870904 17.4195316,8.56479538 C14.5192596,11.492693 11.6115756,14.4129299 8.70476357,17.3342612 C8.63936357,17.3999239 8.57025757,17.4620845 8.47041357,17.5566388 C8.46387357,17.4340685 8.45558957,17.3517713 8.45558957,17.2694741 C8.45493557,14.6707653 8.45297357,12.0722753 8.46125757,9.47356647 C8.46169357,9.34267892 8.51662957,9.17677129 8.60579157,9.08659458 C11.5370196,6.12827329 14.4754416,3.17695602 17.4132096,0.224982129 C17.4544116,0.183614659 17.4982296,0.144873695 17.5869556,0.061701004 Z M12.0762862,3.8028743 C10.6880622,5.18288434 9.30310817,6.55939237 7.96175417,7.89256305 C5.36624617,5.29604297 2.74872017,2.67785422 0.120730165,0.0489405622 L0.339384165,0.0489405622 C2.93641817,0.0480650602 5.53323417,0.0456574297 8.13005017,0.0520048193 C8.24602617,0.0522236948 8.39295817,0.10015743 8.47274617,0.179609237 C9.65626817,1.35453293 10.8308522,2.53843052 12.0071802,3.72079598 C12.0313782,3.74487229 12.0514342,3.77310723 12.0762862,3.8028743 Z" id="Combined-Shape"></path>
            </g>
        </g>
    </g>
</svg>