<svg height="96" width="96" xmlns="http://www.w3.org/2000/svg" xmlns:xlink="http://www.w3.org/1999/xlink"><linearGradient id="a"><stop offset="0" stop-color="#6acaff"/><stop offset="1" stop-color="#0b1cba"/></linearGradient><linearGradient id="b" x1="0%" x2="148.997047%" xlink:href="#a" y1="50%" y2="50%"/><linearGradient id="c" x1="-42.317907%" x2="169.598203%" xlink:href="#a" y1="50%" y2="78.668663%"/><g fill="none" fill-rule="evenodd"><path d="m71.5897269 7.30119015c-7.2003158-4.20188398-15.0574277-6.30119015-23.5897269-6.30119015s-16.3894111 2.09930617-23.5897269 6.30119015c-7.2053182 4.20480325-12.9042797 9.90376475-17.10908295 17.10908295-4.20188398 7.2003158-6.30119015 15.0574277-6.30119015 23.5897269s2.09930617 16.3894111 6.30119015 23.5897269c4.20480325 7.2053182 9.90376475 12.9042797 17.10908295 17.109083 7.2003158 4.2018839 15.0574277 6.3011901 23.5897269 6.3011901s16.3894111-2.0993062 23.5897269-6.3011901c7.2053182-4.2048033 12.9042797-9.9037648 17.109083-17.109083 4.2018839-7.2003158 6.3011901-15.0574277 6.3011901-23.5897269s-2.0993062-16.3894111-6.3011901-23.5897269c-4.2048033-7.2053182-9.9037648-12.9042797-17.109083-17.10908295z" fill-rule="nonzero" stroke="url(#b)" stroke-width="2"/><path d="m69 47.0177201c0-1.1551175-.5079314-2.0136379-1.5238095-2.575587l-25.9047619-14.9852332c-.9841319-.5931684-1.9999948-.6087779-3.0476191-.0468289-1.0158781.5931685-1.5238095 1.4672984-1.5238095 2.6224159v29.9704665c0 1.1551175.5079314 2.0292473 1.5238095 2.6224158.5079391.2497551 1.0158705.3746308 1.5238095.3746308.5396853 0 1.0476167-.1404852 1.5238096-.4214597l25.9047619-14.9852332c1.0158781-.5619491 1.5238095-1.4204695 1.5238095-2.575587z" fill="url(#c)"/></g></svg>