<?xml version="1.0" encoding="UTF-8"?>
<svg width="23px" height="26px" viewBox="0 0 23 26" version="1.1" xmlns="http://www.w3.org/2000/svg" xmlns:xlink="http://www.w3.org/1999/xlink">
    <!-- Generator: Sketch 52.4 (67378) - http://www.bohemiancoding.com/sketch -->
    <title>qq</title>
    <desc>Created with Sketch.</desc>
    <g id="Page-1" stroke="none" stroke-width="1" fill="none" fill-rule="evenodd">
        <g id="新闻详情" transform="translate(-169.000000, -406.000000)">
            <g id="分组-2" transform="translate(148.000000, 386.000000)">
                <g id="qq" transform="translate(19.500000, 19.500000)">
                    <rect id="矩形" fill="#000000" opacity="0" x="0" y="0" width="26" height="26"></rect>
                    <path d="M24.3672461,17.6350378 C23.8402395,14.5668922 21.629433,12.5567278 21.629433,12.5567278 C21.9446712,9.77140201 20.7871881,9.27698594 20.7871881,9.27698594 C20.543689,0.658933462 13.1559394,0.808987021 13.0000447,0.813135965 C12.8441501,0.808987021 5.45502082,0.658933462 5.2129013,9.27698594 C5.2129013,9.27698594 4.05472842,9.77140201 4.36996664,12.5567278 C4.36996664,12.5567278 2.15916013,14.5668922 1.63284334,17.6350378 C1.63284334,17.6350378 1.35140525,22.8191459 4.16026769,18.2698265 C4.16026769,18.2698265 4.79212378,19.9978626 5.94960688,21.5495684 C5.94960688,21.5495684 3.87882963,22.2555807 4.05541823,24.0887234 C4.05541823,24.0887234 3.98367912,26.1334623 8.47703124,25.9930896 C8.47703124,25.9930896 11.6349321,25.7469188 12.583406,24.4061178 L12.9972855,24.4061178 L13.0041835,24.4061178 L13.4187528,24.4061178 C14.366537,25.7462273 17.5244378,25.9930896 17.5244378,25.9930896 C22.0164104,26.1334623 21.9460508,24.0887234 21.9460508,24.0887234 C22.1212598,22.2555807 20.0518622,21.5495684 20.0518622,21.5495684 C21.2093453,19.9978626 21.8412014,18.2698265 21.8412014,18.2698265 C24.6473046,22.8191459 24.3672461,17.6350378 24.3672461,17.6350378 Z" id="路径" fill="#FFFFFF"></path>
                </g>
            </g>
        </g>
    </g>
</svg>