<svg height="13" viewBox="0 0 13 13" width="13" xmlns="http://www.w3.org/2000/svg"><g fill-rule="evenodd" transform="translate(-2 -1)"><path d="m0 0h16v16h-16z" opacity="0"/><path d="m5.00105728 4.47558955c.83047694-.83055688 1.97707555-1.34496011 3.24149827-1.34496011 1.39997881 0 2.69505275.63758372 3.55304705 1.6884872l-1.5874517 1.58754764h3.9312066v-3.93128659l-1.411459 1.41189073c-1.1031241-1.29027719-2.73155602-2.06706251-4.48532697-2.06706251-1.62587366 0-3.10015409.66129564-4.16808603 1.72922757-.7725642.77274008-1.32794766 1.75393083-1.57811403 2.8572308h1.34787014c.21908345-.74490295.62060322-1.39503815 1.15681567-1.93107473zm6.48291662 6.48291655c-.830493.8305569-1.97709157 1.3450561-3.24141835 1.3450561-1.3999948 0-2.69513271-.6376637-3.55315896-1.6885832l1.58754764-1.58745166h-3.93128659v3.93120666l1.41145903-1.411459c1.10315606 1.2899254 2.731572 2.0667267 4.48542289 2.0667267 1.62587366 0 3.10004214-.6610398 4.16797414-1.7289078.7712531-.7718287 1.3260449-1.7574644 1.5768828-2.85756656l-1.3516275.00001599c-.2207624.73802761-.6203954 1.39962707-1.1517951 1.93096277z" fill-rule="nonzero"/></g></svg>