<?xml version="1.0" encoding="UTF-8"?>
<svg width="80px" height="48px" viewBox="0 0 80 48" version="1.1" xmlns="http://www.w3.org/2000/svg" xmlns:xlink="http://www.w3.org/1999/xlink">
    <!-- Generator: Sketch 52.4 (67378) - http://www.bohemiancoding.com/sketch -->
    <title>s-right</title>
    <desc>Created with Sketch.</desc>
    <defs>
        <linearGradient x1="-11.0652022%" y1="100%" x2="162.195532%" y2="50%" id="linearGradient-1">
            <stop stop-color="#00EFFF" offset="0%"></stop>
            <stop stop-color="#0B1CBA" offset="100%"></stop>
        </linearGradient>
    </defs>
    <g id="Page-1" stroke="none" stroke-width="1" fill="none" fill-rule="evenodd">
        <g id="传清医疗-解决方案-智能医学影像2" transform="translate(-303.000000, -581.000000)" fill-rule="nonzero">
            <g id="content" transform="translate(120.000000, 205.000000)">
                <g id="分页符" transform="translate(35.000000, 376.000000)">
                    <g id="s-right" transform="translate(148.000000, 0.000000)">
                        <path d="M4,0 L56.5,0 C69.4786916,-2.38414697e-15 80,10.5213084 80,23.5 L80,24.5 C80,37.4786916 69.4786916,48 56.5,48 L4,48 C1.790861,48 -6.81850485e-13,46.209139 -6.82121026e-13,44 L-6.82121026e-13,4 C-6.82391568e-13,1.790861 1.790861,4.05812251e-16 4,0 Z" id="Rectangle-19-Copy-2" fill-opacity="0.201228487" fill="#000000"></path>
                        <polyline id="路径" stroke="url(#linearGradient-1)" stroke-width="2" stroke-linecap="round" stroke-linejoin="round" transform="translate(37.000000, 22.000000) scale(-1, 1) translate(-37.000000, -22.000000) " points="55 25 19 25 24.8348787 19"></polyline>
                    </g>
                </g>
            </g>
        </g>
    </g>
</svg>