<?xml version="1.0" encoding="UTF-8"?>
<svg width="96px" height="80px" viewBox="0 0 96 80" version="1.1" xmlns="http://www.w3.org/2000/svg" xmlns:xlink="http://www.w3.org/1999/xlink">
    <!-- Generator: Sketch 53.1 (72631) - https://sketchapp.com -->
    <title>电话图标</title>
    <desc>Created with Sketch.</desc>
    <defs>
        <rect id="path-1" x="0" y="0" width="585" height="175"></rect>
        <filter x="-8.1%" y="-24.3%" width="116.2%" height="154.3%" filterUnits="objectBoundingBox" id="filter-3">
            <feOffset dx="0" dy="5" in="SourceAlpha" result="shadowOffsetOuter1"></feOffset>
            <feGaussianBlur stdDeviation="15" in="shadowOffsetOuter1" result="shadowBlurOuter1"></feGaussianBlur>
            <feComposite in="shadowBlurOuter1" in2="SourceAlpha" operator="out" result="shadowBlurOuter1"></feComposite>
            <feColorMatrix values="0 0 0 0 0.301960784   0 0 0 0 0.541176471   0 0 0 0 0.866666667  0 0 0 0.151032561 0" type="matrix" in="shadowBlurOuter1"></feColorMatrix>
        </filter>
        <path d="M68.1059414,64.7653741 C68.2781382,64.6278119 69.0419811,64.0953112 69.2318449,63.940001 C70.0884093,63.2255629 70.6447368,62.1516886 70.6447368,60.9446858 C70.6447368,59.7953741 70.1458085,58.7569982 69.3466418,58.064745 L53.592824,45.0140634 C52.943775,44.4815627 52.1048652,44.1531912 51.1864901,44.1531912 C50.1577265,44.1531912 49.221679,44.5570041 48.5328977,45.2048822 C48.2635647,45.4755697 45.8969622,47.9117578 45.8969622,47.9117578 C43.2407971,51.7457627 39.8110782,51.3368368 38.1730009,49.6860828 L22.0925115,33.5113812 C20.4544342,31.8606271 20.4544342,29.1821424 23.8823096,25.7508644 L26.5005805,23.1194255 C27.1849519,22.4316122 27.5867464,21.4731098 27.5867464,20.4391723 C27.5867464,19.4007964 27.1849542,18.4777947 26.535902,17.7899799 L13.0427858,1.40225209 C12.3363383,0.554687116 11.2634224,0 10.0801243,0 C8.82176696,0 7.71352803,0.612375793 7.00707431,1.55312549 L6.77747899,1.85931299 C3.83689052,5.85306647 0,12.1853498 0,18.1360425 C-5.51471119e-16,34.5237703 36.3555551,71 52.5067497,71 C52.811405,71 53.1116457,70.9778125 53.4030518,70.9778125 C57.593173,70.6405619 60.776596,69.242745 62.644236,68.1955002 C64.6664199,67.0639976 66.5561718,65.9146858 68.1059414,64.7653741 Z" id="path-4"></path>
        <path d="M52.6842105,26.4745763 L58.6657895,26.4745763 C59.9912729,26.4745763 61.0657895,27.5490929 61.0657895,28.8745763 L61.0657895,28.8881356 C61.0657895,30.213619 59.9912729,31.2881356 58.6657895,31.2881356 L50.2947368,31.2881356 C49.6319951,31.2881356 49.0319951,31.0195064 48.5976806,30.5851919 C48.1627769,30.1533713 47.8947368,29.5546871 47.8947368,28.8933988 L47.8947368,19.2421945 C47.8947368,17.9196178 48.966897,16.8474576 50.2894737,16.8474576 C51.6120503,16.8474576 52.6842105,17.9196178 52.6842105,19.2421945 L52.6842105,26.4745763 Z" id="path-6"></path>
    </defs>
    <g id="Page-1" stroke="none" stroke-width="1" fill="none" fill-rule="evenodd">
        <g id="支持与服务-copy-6" transform="translate(-170.000000, -756.000000)">
            <rect fill="#FFFFFF" x="0" y="0" width="1440" height="2080"></rect>
            <g id="Oval-2" transform="translate(-693.000000, -650.000000)">
                <g id="Oval">
                    <g id="分组">
                        <g id="分组-20">
                            <g id="分组-15" transform="translate(1345.543410, 1344.041948) rotate(-13.000000) translate(-1345.543410, -1344.041948) translate(224.043410, 224.041948)">
                                <g id="分组-13" transform="translate(1121.272905, 1120.406717) rotate(-316.000000) translate(-1121.272905, -1120.406717) translate(295.772905, 361.406717)" stroke="#6ACAFF" stroke-width="0.5">
                                    <path d="M7.00990946,1517.25927 C107.951347,1423.15065 79.5043467,1250.20069 247.025177,1087.03373 C469.894369,869.956897 939.843661,954.940037 1197.7097,761.968033 C1455.57573,568.996028 1277.57239,337.786961 1641.43036,0.126741618" id="路径" opacity="0.699999988"></path>
                                    <path d="M7.00990946,1517.25927 C107.951347,1423.15065 59.4249445,1239.66283 226.945775,1076.49586 C449.814967,859.419032 884.770284,978.191271 1197.7097,782.990878 C1510.64911,587.790485 1277.57239,337.786961 1641.43036,0.126741618" id="路径"></path>
                                    <path d="M0.314414489,1506.1161 C101.255852,1412.00747 50.6692972,1225.09099 218.190127,1061.92402 C441.059319,844.847188 899.004666,987.854576 1211.94408,792.654183 C1524.88349,597.45379 1286.32803,352.358805 1650.18601,14.6985857" id="路径-copy"></path>
                                    <path d="M7.00990946,1517.25927 C107.951347,1423.15065 94.3063793,1264.29316 261.82721,1101.12619 C484.696401,884.04936 1000.67427,931.173594 1203.6689,727.819576 C1406.66352,524.465558 1277.57239,337.786961 1641.43036,0.126741618" id="路径" opacity="0.600000024"></path>
                                    <path d="M7.00990946,1517.25927 C107.951347,1423.15065 105.376157,1284.51172 272.896987,1121.34475 C495.766179,904.267923 1030.38253,904.290185 1197.60098,696.93722 C1364.81943,489.584254 1277.57239,337.786961 1641.43036,0.126741618" id="路径" opacity="0.5"></path>
                                    <path d="M7.00990946,1517.25927 C107.951347,1423.15065 114.90082,1297.74702 282.42165,1134.58005 C505.290842,917.503218 1004.90844,902.543746 1190.45951,653.561733 C1345.54009,445.466602 1277.57239,337.786961 1641.43036,0.126741618" id="路径" opacity="0.300000012"></path>
                                    <path d="M7.00990946,1517.25927 C107.951347,1423.15065 124.425483,1315.39408 291.946313,1152.22711 C514.815505,935.150279 938.717184,913.560068 1143.84438,650.648152 C1334.90864,405.760715 1277.57239,337.786961 1641.43036,0.126741618" id="路径" opacity="0.100000001"></path>
                                </g>
                                <g id="分组-2" transform="translate(403.427312, 1155.181378) scale(1, -1) translate(-403.427312, -1155.181378) translate(115.927312, 904.681378)"></g>
                                <g id="分组-2" transform="translate(586.202575, 941.475330)"></g>
                            </g>
                        </g>
                    </g>
                </g>
            </g>
            <g id="Group-17" transform="translate(120.000000, 706.000000)">
                <g id="Oval">
                    <mask id="mask-2" fill="white">
                        <use xlink:href="#path-1"></use>
                    </mask>
                    <g id="Mask-Copy-2">
                        <use fill="black" fill-opacity="1" filter="url(#filter-3)" xlink:href="#path-1"></use>
                        <use fill-opacity="0.9" fill="#FFFFFF" fill-rule="evenodd" xlink:href="#path-1"></use>
                    </g>
                </g>
            </g>
            <g id="电话图标-2" transform="translate(170.000000, 756.000000)">
                <g id="电话图标" transform="translate(2.000000, 7.000000)">
                    <rect id="Rectangle" fill="#616CC3" x="26.3421053" y="6.01694915" width="64.6578947" height="51.7457627" rx="7.2"></rect>
                    <rect id="Rectangle-Copy-6" stroke="#252B55" stroke-width="1.2" fill="#ECEEF2" x="19.1578947" y="0" width="64.6578947" height="51.7457627" rx="7.2"></rect>
                    <rect id="Rectangle" fill="#FFFFFF" x="73.2368421" y="26.4745763" width="8.38157895" height="4.81355932"></rect>
                    <rect id="Rectangle-Copy-10" fill="#CFD5E2" x="47.8947368" y="2.20338983" width="4.78947368" height="7.22033898"></rect>
                    <g id="电话">
                        <g id="Path-4">
                            <mask id="mask-5" fill="white">
                                <use xlink:href="#path-4"></use>
                            </mask>
                            <g id="Path-6" fill-rule="nonzero">
                                <use fill="#FFFFFF" xlink:href="#path-4"></use>
                                <path stroke="#FFFFFF" stroke-width="2.4" d="M68.8549268,65.7029352 L68.8207501,65.7292456 C67.3406496,66.8268907 65.5131133,67.9653166 63.2311429,69.2421808 C60.4928947,70.7776032 57.2366292,71.8731397 53.4030518,72.1778125 C53.3018943,72.1778125 53.2161907,72.1802253 53.0043418,72.1880819 C52.7677665,72.1968555 52.6535671,72.2 52.5067497,72.2 C35.6541497,72.2 -1.2,35.1476566 -1.2,18.1360425 C-1.2,12.7843012 1.53911138,6.94988926 5.8174108,1.13940391 L6.04751094,0.832543681 C7.0004642,-0.436457332 8.47476141,-1.2 10.0801243,-1.2 C11.5901582,-1.2 13.0097629,-0.511602853 13.9691759,0.639492975 L27.4086666,16.966401 C28.2888124,17.8991109 28.7867464,19.1235858 28.7867464,20.4391723 C28.7867464,21.77689 28.2687082,23.0437344 27.3512344,23.9658225 L24.7312586,26.5989715 C21.997591,29.3353525 21.6501269,31.3619376 22.9435144,32.6653351 L39.0247934,48.8408315 C40.486737,50.3140888 42.9846517,50.0083018 44.9105549,47.2283834 L45.0362305,47.0756114 C45.1192239,46.9901777 45.1192239,46.9901777 45.4511123,46.6486525 C45.8660595,46.2217482 46.073623,46.0082644 46.3643803,45.7093843 C46.3658046,45.7079202 46.3658046,45.7079202 46.3672289,45.7064561 C47.0941593,44.9592206 47.5655575,44.4757583 47.7107203,44.3307973 C48.642355,43.4544877 49.8786787,42.9531912 51.1864901,42.9531912 C52.3571951,42.9531912 53.4697285,43.3608874 54.3583592,44.0899661 L70.1323264,57.157717 C71.2129629,58.0937846 71.8447368,59.4713351 71.8447368,60.9446858 C71.8447368,62.4756068 71.156875,63.8970025 69.9916337,64.8688287 C69.883704,64.9571161 69.7269763,65.0719117 69.3788831,65.3220827 C69.3760914,65.324089 69.3760914,65.324089 69.3733006,65.3260946 C68.9979553,65.5958317 68.900538,65.6664979 68.8549268,65.7029352 Z"></path>
                                <path stroke="#252B55" stroke-width="1.2" d="M67.7402665,64.2895693 C67.8205854,64.225781 67.89996,64.1683036 68.3228645,63.8643887 C68.3256308,63.8624007 68.3256308,63.8624007 68.3283966,63.860413 C68.6302175,63.6434975 68.7876475,63.5281875 68.8475329,63.4792361 C69.6002597,62.8514062 70.0447368,61.93294 70.0447368,60.9446858 C70.0447368,59.9945272 69.6404864,59.11308 68.9638743,58.5267937 L53.2122564,45.4779258 C52.6461926,45.0135088 51.9358301,44.7531912 51.1864901,44.7531912 C50.3421432,44.7531912 49.545356,45.0762673 48.9582246,45.6280807 C48.8490509,45.7378036 48.3741131,46.224896 47.65743,46.9615979 C47.656007,46.9630607 47.656007,46.9630607 47.654584,46.9645235 C47.3640485,47.2631755 47.1566405,47.4764994 46.7419119,47.9031789 C46.4102009,48.2445215 46.4102009,48.2445215 46.3901659,48.253445 C43.839405,51.9353056 40.0232493,52.4024676 37.7474995,50.1091058 L21.6666152,33.9340068 C19.5629046,31.814016 20.0986396,28.6893408 23.4569827,25.3276658 L26.0752536,22.6962269 C26.6556075,22.1129542 26.9867464,21.3031655 26.9867464,20.4391723 C26.9867464,19.588189 26.6678884,18.804082 26.072707,18.1713594 L12.5818914,1.78640873 C11.9635265,1.04452151 11.0468394,0.6 10.0801243,0.6 C9.05090142,0.6 8.10546624,1.08964353 7.4871084,1.91308002 L7.26063825,2.21506168 C3.19753414,7.73335719 0.6,13.2662042 0.6,18.1360425 C0.6,34.1556988 36.6504298,70.4 52.5067497,70.4 C52.6241647,70.4 52.7229739,70.3972793 52.9376329,70.3893184 C53.1721503,70.3806211 53.2719158,70.3778125 53.3549152,70.3797466 C56.813882,70.1013444 59.8257171,69.088044 62.3512554,67.671895 C64.5685003,66.4312471 66.3331525,65.3322685 67.7402665,64.2895693 Z" stroke-linejoin="square"></path>
                            </g>
                        </g>
                        <path d="M46.0986842,49.940678 L65.2565789,65.5847458" id="Path-2" stroke="#252B55" stroke-width="1.2" stroke-linecap="round"></path>
                        <path d="M4.78947368,6.01694915 L22.1513158,25.8728814" id="Path-2-Copy" stroke="#252B55" stroke-width="1.2" stroke-linecap="round"></path>
                    </g>
                    <g id="Combined-Shape">
                        <use fill="#CFD5E2" xlink:href="#path-6"></use>
                        <use fill="#616CC3" xlink:href="#path-6"></use>
                    </g>
                </g>
            </g>
        </g>
    </g>
</svg>