<?xml version="1.0" encoding="UTF-8"?>
<svg width="83px" height="80px" viewBox="0 0 83 80" version="1.1" xmlns="http://www.w3.org/2000/svg" xmlns:xlink="http://www.w3.org/1999/xlink">
    <!-- Generator: Sketch 53.1 (72631) - https://sketchapp.com -->
    <title>电话图标</title>
    <desc>Created with Sketch.</desc>
    <defs>
        <rect id="path-1" x="0" y="0" width="585" height="175"></rect>
        <filter x="-8.1%" y="-24.3%" width="116.2%" height="154.3%" filterUnits="objectBoundingBox" id="filter-2">
            <feOffset dx="0" dy="5" in="SourceAlpha" result="shadowOffsetOuter1"></feOffset>
            <feGaussianBlur stdDeviation="15" in="shadowOffsetOuter1" result="shadowBlurOuter1"></feGaussianBlur>
            <feComposite in="shadowBlurOuter1" in2="SourceAlpha" operator="out" result="shadowBlurOuter1"></feComposite>
            <feColorMatrix values="0 0 0 0 0.301960784   0 0 0 0 0.541176471   0 0 0 0 0.866666667  0 0 0 0.151032561 0" type="matrix" in="shadowBlurOuter1"></feColorMatrix>
        </filter>
    </defs>
    <g id="Page-1" stroke="none" stroke-width="1" fill="none" fill-rule="evenodd">
        <g id="支持与服务-copy-6" transform="translate(-785.000000, -756.000000)">
            <rect fill="#FFFFFF" x="0" y="0" width="1440" height="2076"></rect>
            <g id="Oval-2" transform="translate(-693.000000, -650.000000)">
                <g id="Oval">
                    <g id="分组">
                        <g id="分组-20">
                            <g id="分组-15" transform="translate(1345.543410, 1344.041948) rotate(-13.000000) translate(-1345.543410, -1344.041948) translate(224.043410, 224.041948)">
                                <g id="分组-13" transform="translate(1121.272905, 1120.406717) rotate(-316.000000) translate(-1121.272905, -1120.406717) translate(295.772905, 361.406717)" stroke="#6ACAFF" stroke-width="0.5">
                                    <path d="M7.00990946,1517.25927 C107.951347,1423.15065 79.5043467,1250.20069 247.025177,1087.03373 C469.894369,869.956897 939.843661,954.940037 1197.7097,761.968033 C1455.57573,568.996028 1277.57239,337.786961 1641.43036,0.126741618" id="路径" opacity="0.699999988"></path>
                                    <path d="M7.00990946,1517.25927 C107.951347,1423.15065 59.4249445,1239.66283 226.945775,1076.49586 C449.814967,859.419032 884.770284,978.191271 1197.7097,782.990878 C1510.64911,587.790485 1277.57239,337.786961 1641.43036,0.126741618" id="路径"></path>
                                    <path d="M0.314414489,1506.1161 C101.255852,1412.00747 50.6692972,1225.09099 218.190127,1061.92402 C441.059319,844.847188 899.004666,987.854576 1211.94408,792.654183 C1524.88349,597.45379 1286.32803,352.358805 1650.18601,14.6985857" id="路径-copy"></path>
                                    <path d="M7.00990946,1517.25927 C107.951347,1423.15065 94.3063793,1264.29316 261.82721,1101.12619 C484.696401,884.04936 1000.67427,931.173594 1203.6689,727.819576 C1406.66352,524.465558 1277.57239,337.786961 1641.43036,0.126741618" id="路径" opacity="0.600000024"></path>
                                    <path d="M7.00990946,1517.25927 C107.951347,1423.15065 105.376157,1284.51172 272.896987,1121.34475 C495.766179,904.267923 1030.38253,904.290185 1197.60098,696.93722 C1364.81943,489.584254 1277.57239,337.786961 1641.43036,0.126741618" id="路径" opacity="0.5"></path>
                                    <path d="M7.00990946,1517.25927 C107.951347,1423.15065 114.90082,1297.74702 282.42165,1134.58005 C505.290842,917.503218 1004.90844,902.543746 1190.45951,653.561733 C1345.54009,445.466602 1277.57239,337.786961 1641.43036,0.126741618" id="路径" opacity="0.300000012"></path>
                                    <path d="M7.00990946,1517.25927 C107.951347,1423.15065 124.425483,1315.39408 291.946313,1152.22711 C514.815505,935.150279 938.717184,913.560068 1143.84438,650.648152 C1334.90864,405.760715 1277.57239,337.786961 1641.43036,0.126741618" id="路径" opacity="0.100000001"></path>
                                </g>
                                <g id="分组-2" transform="translate(586.202575, 941.475330)"></g>
                            </g>
                        </g>
                    </g>
                </g>
            </g>
            <g id="Group" transform="translate(735.000000, 702.000000)">
                <g id="Mask-Copy">
                    <use fill="black" fill-opacity="1" filter="url(#filter-2)" xlink:href="#path-1"></use>
                    <use fill-opacity="0.9" fill="#FFFFFF" fill-rule="evenodd" xlink:href="#path-1"></use>
                </g>
            </g>
            <g id="邮箱图标-2" transform="translate(785.000000, 756.000000)">
                <g id="邮箱图标" transform="translate(4.000000, 1.000000)">
                    <path d="M0.576,22.9180652 L0.576,67.9580898 C0.576,68.9124379 1.34965195,69.6860898 2.304,69.6860898 L73.696,69.6860898 C74.650348,69.6860898 75.424,68.9124379 75.424,67.9580898 L75.424,22.9180652 L40.1293117,2.31704085 C38.8136314,1.54909632 37.1863686,1.54909632 35.8706883,2.31704085 L0.576,22.9180652 Z" id="Rectangle-Copy-8" stroke="#252B55" stroke-width="1.152" fill="#616CC3"></path>
                    <path d="M8.63660606,69.2788387 L67.3633939,69.2788387 L67.3633939,12.624129 C67.3633939,10.3973169 65.5582061,8.59212903 63.3313939,8.59212903 L12.6686061,8.59212903 C10.4417939,8.59212903 8.63660606,10.3973169 8.63660606,12.624129 L8.63660606,69.2788387 Z" id="Combined-Shape" stroke="#252B55" stroke-width="1.152" fill="#ECEEF2"></path>
                    <rect id="Rectangle" fill="#CFD5E2" x="18.4242424" y="19.4677419" width="25.3333333" height="3.43548387"></rect>
                    <rect id="Rectangle-Copy-4" fill="#FFFFFF" x="48.3636364" y="19.4677419" width="9.21212121" height="3.43548387"></rect>
                    <rect id="Rectangle-Copy-5" fill="#FFFFFF" x="48.3636364" y="29.7741935" width="9.21212121" height="3.43548387"></rect>
                    <rect id="Rectangle-Copy-2" fill="#CFD5E2" x="18.4242424" y="29.7741935" width="25.3333333" height="3.43548387"></rect>
                    <path d="M0.576,23.761807 L0.576,68.3801029 C0.576,69.3344509 1.34965195,70.1081029 2.304,70.1081029 L73.696,70.1081029 C74.650348,70.1081029 75.424,69.3344509 75.424,68.3801029 L75.424,23.761807 L38,52.7391024 L0.576,23.761807 Z" id="Rectangle-Copy-9" stroke="#252B55" stroke-width="1.152" fill="#FFFFFF"></path>
                    <path d="M41.3768766,41.7178167 C39.4344597,40.0501678 36.5655403,40.0501678 34.6231234,41.7178167 L2.73508795,69.0950736 C2.60763138,69.2045006 2.53429646,69.3641165 2.53429646,69.5321029 C2.53429646,69.8502189 2.79218045,70.1081029 3.11029646,70.1081029 L72.8897035,70.1081029 C73.05769,70.1081029 73.2173058,70.034768 73.3267328,69.9073114 C73.5339547,69.6659468 73.5062766,69.3022956 73.264912,69.0950736 L41.3768766,41.7178167 Z" id="Rectangle" stroke="#252B55" stroke-width="1.152" fill="#FFFFFF"></path>
                </g>
            </g>
        </g>
    </g>
</svg>