<?xml version="1.0" encoding="UTF-8"?>
<svg width="14px" height="16px" viewBox="0 0 14 16" version="1.1" xmlns="http://www.w3.org/2000/svg" xmlns:xlink="http://www.w3.org/1999/xlink">
    <!-- Generator: Sketch 53.1 (72631) - https://sketchapp.com -->
    <title>更多</title>
    <desc>Created with Sketch.</desc>
    <g id="Page-1" stroke="none" stroke-width="1" fill="none" fill-rule="evenodd">
        <g id="支持与服务-copy-6" transform="translate(-853.000000, -483.000000)" fill="#FFFFFF" fill-rule="nonzero">
            <g id="更多" transform="translate(860.000000, 491.000000) rotate(-270.000000) translate(-860.000000, -491.000000) translate(852.000000, 484.000000)">
                <path d="M8.5184178,7.53954193 C8.38234553,7.41218599 8.20153282,7.35997531 8.02413117,7.37300918 C7.84675596,7.35995025 7.66589037,7.41055675 7.53158973,7.53954193 L1.95151593,12.8371581 C1.70523199,13.0706148 1.70523199,13.449374 1.95151593,13.6844348 C2.19779987,13.9178915 2.59737004,13.9178915 2.8436011,13.6844348 L8.02413117,8.76557786 L13.2063535,13.6844348 C13.4526375,13.9178915 13.8522077,13.9178915 14.09672,13.6844348 C14.3430039,13.4509782 14.3430039,13.0722189 14.09672,12.8371581 L8.51836491,7.53954193 L8.5184178,7.53954193 Z M0.690824556,7.69792851 C0.937108497,7.93138516 1.33667867,7.93138516 1.58290973,7.69792851 L8.02410472,1.58243701 L14.4670185,7.69792851 C14.7133024,7.93138516 15.1128726,7.93138516 15.3591036,7.69792851 C15.6053876,7.46447185 15.6053876,7.08571262 15.3591036,6.8506518 L8.51833847,0.356401083 C8.3822662,0.22904514 8.20145349,0.176834468 8.02405184,0.189868337 C7.84667663,0.176809402 7.66581104,0.227415907 7.5315104,0.356401083 L0.690745229,6.8506518 C0.444461289,7.08576275 0.444461289,7.46449692 0.690745229,7.69792851 L0.690824556,7.69792851 Z" id="Shape"></path>
            </g>
        </g>
    </g>
</svg>