<svg height="27" viewBox="0 0 27 27" width="27" xmlns="http://www.w3.org/2000/svg"><path d="m26.9745015 3.21902158c-.9921249.54077698-2.0592703.90647482-3.1786771 1.07119425 1.1421658-.84224461 2.0196527-2.1745036 2.4335297-3.76264748-1.0696741.77905036-2.2539863 1.34572661-3.5141619 1.65030215-1.0098263-1.32189928-2.4478595-2.14756834-4.0393054-2.14756834-3.0564527 0-5.5338146 3.04471942-5.5338146 6.80115108 0 .53352518.0488898 1.05254676.1432976 1.54981295-4.59900882-.28385612-8.67708882-2.9918849-11.4064859-7.10676259-.47625366 1.00489208-.74936195 2.17243165-.74936195 3.419741 0 2.35994245.9769522 4.44120864 2.46218927 5.6615827-.90698927-.035223-1.76003122-.3408345-2.50686439-.85053234-.00084293.02797123-.00084293.05697842-.00084293.08598562 0 3.29542442 1.90754342 6.04385612 4.43885269 6.66854672-.46445269.1553957-.95335025.2382734-1.45826342.2382734-.35655805 0-.70300097-.0424748-1.04101463-.1222446.7038439 2.701813 2.74794146 4.6680863 5.16967024 4.7229928-1.89405658 1.8243453-4.28038244 2.9110792-6.87322537 2.9110792-.44675121 0-.88675902-.0321152-1.32002341-.0953094 2.44870244 1.9300144 5.35764293 3.0561151 8.48321561 3.0561151 10.17918439 0 15.74503029-10.3638561 15.74503029-19.35194243 0-.2952518-.0050576-.58843166-.0160157-.87953957 1.0814752-.95930935 2.0196527-2.15689209 2.7614283-3.52023022z" fill="#fff"/></svg>