<?xml version="1.0" encoding="UTF-8"?>
<svg width="29px" height="23px" viewBox="0 0 29 23" version="1.1" xmlns="http://www.w3.org/2000/svg" xmlns:xlink="http://www.w3.org/1999/xlink">
    <!-- Generator: Sketch 52.4 (67378) - http://www.bohemiancoding.com/sketch -->
    <title>wb</title>
    <desc>Created with Sketch.</desc>
    <g id="Page-1" stroke="none" stroke-width="1" fill="none" fill-rule="evenodd">
        <g id="新闻详情" transform="translate(-166.000000, -482.000000)">
            <g id="分组-4" transform="translate(148.000000, 461.000000)">
                <g id="wb" transform="translate(17.062500, 17.062500)">
                    <rect id="矩形" fill="#000000" opacity="0" x="0" y="0" width="30.875" height="30.875"></rect>
                    <path d="M22.0428638,15.581517 C20.970399,15.3750436 21.4912408,14.8028521 21.4912408,14.8028521 C21.4912408,14.8028521 22.5411531,13.0835528 21.284306,11.835933 C19.7257425,10.2876857 15.9408775,12.0324157 15.9408775,12.0324157 C14.4953815,12.4789673 14.8784699,11.8292726 15.0835761,10.7248521 C15.0835761,9.42304069 14.6343539,7.22086016 10.7827455,8.52236884 C6.93509905,9.82902421 3.63145646,14.4110977 3.63145646,14.4110977 C1.33444962,17.4573364 1.63829941,19.8102848 1.63829941,19.8102848 C2.21217016,25.0063289 7.77015261,26.4325693 12.0917072,26.7710402 C16.6400063,27.1243458 22.77765,25.213105 24.6385395,21.285873 C26.5000384,17.3519805 23.1180715,15.795559 22.0419495,15.581517 M12.429081,25.3054428 C7.91461079,25.5152463 4.26506098,23.2655346 4.26506098,20.2737903 C4.26506098,17.282046 7.91461079,14.8739976 12.429081,14.6675242 C16.9435513,14.4610509 20.6040726,16.3099259 20.6040726,19.2995509 C20.6040726,22.289176 16.9469037,25.1013914 12.429081,25.3054428" id="形状" fill="#FFFFFF" fill-rule="nonzero"></path>
                    <path d="M12.1352195,16.938417 C7.62176414,17.462977 8.1433863,21.6579533 8.1433863,21.6579533 C8.1433863,21.6579533 8.09764591,22.9869387 9.35505217,23.6633053 C11.9958779,25.0821723 14.7142503,24.2230363 16.0888853,22.4626793 C17.4635202,20.7023224 16.6538245,16.4180656 12.1352195,16.938417 M10.9959507,22.8252119 C10.1532371,22.9235105 9.47409834,22.4416368 9.47409834,21.7415222 C9.47409834,21.0414075 10.0775079,20.3160419 10.9202216,20.2288657 C11.8895543,20.1386835 12.5187118,20.6902981 12.5187118,21.3898115 C12.5187118,22.0893249 11.8353322,22.7305205 10.9959507,22.8252119 M13.656466,20.5772697 C13.3708158,20.7876949 13.0203414,20.7576341 12.8688832,20.5048233 C12.7110637,20.2565216 12.7701324,19.8597198 13.0597206,19.6513989 C13.3929287,19.4052014 13.7415856,19.4758442 13.8918321,19.7232441 C14.0432904,19.9766561 13.9351492,20.3572251 13.656466,20.5769691 M29.1167168,13.536443 C29.1389989,13.452405 29.151,13.3660095 29.1524609,13.2791231 C29.2150886,12.8820889 29.2476926,12.4809609 29.25,12.0790983 C29.25,7.66016944 25.627119,4.0625 21.1730353,4.0625 C20.7740221,4.06249999 20.4053188,4.27374831 20.2058122,4.61666975 C20.0063056,4.95959119 20.0063056,5.38208783 20.2058122,5.72500927 C20.4053188,6.06793071 20.7740221,6.27917902 21.1730353,6.27917901 C24.3954607,6.27917901 27.0165969,8.88123672 27.0165969,12.0790983 C27.0168595,12.4348027 26.9844139,12.7897888 26.9196636,13.1396412 L26.932689,13.1417455 C26.8654984,13.7179881 27.2594704,14.2474382 27.8342032,14.3532701 C28.4089361,14.4591021 28.9680853,14.1051608 29.1136876,13.543357 C29.1132055,13.5410772 29.1132055,13.5387229 29.1136876,13.536443" id="形状" fill="#FFFFFF" fill-rule="nonzero"></path>
                    <path d="M25.1594451,12.0684242 C25.1728349,11.9335753 25.1875,11.7990209 25.1875,11.6609334 C25.1875,9.26280284 23.0757287,7.3125 20.4793722,7.3125 C19.9384799,7.3125 19.5,7.71745319 19.5,8.21698827 C19.5,8.71652336 19.9384799,9.12147655 20.4793722,9.12147655 C21.9970862,9.12326156 23.226856,10.2592651 23.2284368,11.6609334 C23.2286129,11.769988 23.2213724,11.8789452 23.206758,11.9871616 L23.229712,11.9901059 C23.2252487,12.0260263 23.206758,12.0581191 23.206758,12.0952173 C23.2065888,12.3351264 23.3096641,12.565263 23.4932906,12.7349596 C23.676917,12.9046562 23.9260398,13.0000001 24.1858114,13 C24.6805984,13 25.0727298,12.6555172 25.1390415,12.2147558 L25.1492433,12.2168168 C25.1517937,12.1941457 25.1492433,12.169708 25.1533878,12.1473314 C25.1533878,12.1296656 25.1651836,12.1140608 25.1651836,12.0955117 C25.1651836,12.0857955 25.1591263,12.0778459 25.1591263,12.0687186" id="路径" fill="#FFFFFF"></path>
                </g>
            </g>
        </g>
    </g>
</svg>