<?xml version="1.0" encoding="UTF-8"?>
<svg width="28px" height="22px" viewBox="0 0 28 22" version="1.1" xmlns="http://www.w3.org/2000/svg" xmlns:xlink="http://www.w3.org/1999/xlink">
    <!-- Generator: Sketch 52.4 (67378) - http://www.bohemiancoding.com/sketch -->
    <title>wx</title>
    <desc>Created with Sketch.</desc>
    <g id="Page-1" stroke="none" stroke-width="1" fill="none" fill-rule="evenodd" opacity="0.300000012">
        <g id="新闻详情" transform="translate(-167.000000, -332.000000)" fill="#000000" fill-rule="nonzero">
            <g id="分组" transform="translate(148.000000, 311.000000)">
                <g id="微信" transform="translate(17.062500, 17.062500)">
                    <path d="M20.5880562,11.2663944 C20.8934957,11.2682863 21.1986124,11.2863066 21.5020913,11.3203778 C20.681448,7.62310976 16.5932949,4.875 11.9273174,4.875 C6.71062921,4.875 2.4375,8.31569867 2.4375,12.6812334 C2.4375,15.202435 3.85946629,17.2713034 6.23493329,18.8771605 L5.28595154,21.6389144 L8.60316994,20.029498 C9.79105407,20.2564061 10.7421447,20.4904329 11.9276187,20.4904329 C12.2252676,20.4904329 12.5199038,20.4761956 12.813335,20.4533565 C12.6213435,19.8298778 12.522498,19.1822162 12.5199038,18.5307178 C12.5199038,14.5208208 16.0802423,11.2663944 20.5880562,11.2663944 Z M15.4864508,8.77752348 C16.2010492,8.77752348 16.6740337,9.23282283 16.6740337,9.92333546 C16.6740337,10.6138481 16.2010492,11.0721136 15.4864508,11.0721136 C14.7718525,11.0721136 14.0614719,10.6111786 14.0614719,9.92333546 C14.0614719,9.23549234 14.7745639,8.77752348 15.4864508,8.77752348 Z M8.84478371,11.0721136 C8.13289677,11.0721136 7.41528581,10.6111786 7.41528581,9.92333546 C7.41528581,9.23549234 8.13289677,8.77752348 8.84478371,8.77752348 C9.55667065,8.77752348 10.0293539,9.23282283 10.0293539,9.92333546 C10.0293539,10.6138481 9.55576685,11.0721136 8.84478371,11.0721136 Z M29.25,18.4206747 C29.25,14.750695 25.454073,11.7593635 21.1890779,11.7593635 C16.6737324,11.7593635 13.1182142,14.750695 13.1182142,18.4206747 C13.1182142,22.0956968 16.6731299,25.0807996 21.1890779,25.0807996 C22.133842,25.0807996 23.0870414,24.8515185 24.0360232,24.621051 L26.6395471,26 L25.9255513,23.7065964 C27.8307451,22.3231982 29.25,20.4904329 29.25,18.4206747 Z M18.5719972,17.2716 C18.0996152,17.2716 17.6230154,16.8171905 17.6230154,16.352103 C17.6230154,15.8947273 18.0999164,15.4346822 18.5719972,15.4346822 C19.2896081,15.4346822 19.7595801,15.8947273 19.7595801,16.352103 C19.7601826,16.8171905 19.2896081,17.2716 18.5719972,17.2716 Z M23.791698,17.2716 C23.3229312,17.2716 22.8493441,16.8171905 22.8493441,16.352103 C22.8493441,15.8947273 23.3232324,15.4346822 23.791698,15.4346822 C24.5032837,15.4346822 24.9792809,15.8947273 24.9792809,16.352103 C24.9792809,16.8171905 24.503585,17.2716 23.791698,17.2716 Z" id="wx"></path>
                </g>
            </g>
        </g>
    </g>
</svg>