<?xml version="1.0" encoding="UTF-8"?>
<svg width="140px" height="112px" viewBox="0 0 140 112" version="1.1" xmlns="http://www.w3.org/2000/svg" xmlns:xlink="http://www.w3.org/1999/xlink">
    <!-- Generator: Sketch 52.4 (67378) - http://www.bohemiancoding.com/sketch -->
    <title>合并形状 copy</title>
    <desc>Created with Sketch.</desc>
    <g id="Page-1" stroke="none" stroke-width="1" fill="none" fill-rule="evenodd" opacity="0.547014509">
        <g id="关于我们1.3-copy-11" transform="translate(-213.000000, -1375.000000)" fill="#EFEFF9">
            <g id="分组-9" transform="translate(205.000000, 1375.000000)">
                <path d="M93,112 L93,58.8717949 C95.8947513,27.2818933 112.780547,7.65815795 143.657895,3.63797881e-12 L143.657895,22.974359 C138.833309,25.8461682 134.973699,28.7179344 132.078947,31.5897436 C132.078947,32.5470133 131.114045,33.5042687 129.184211,34.4615385 C126.289459,39.2478872 124.842105,42.598281 124.842105,44.5128205 L124.842105,54.5641026 L148,54.5641026 L148,112 L93,112 Z M8,112 L8,58.8717949 C13.7895026,25.3673538 30.6752987,5.74361846 58.6578947,3.63797881e-12 L58.6578947,22.974359 C48.0438066,27.7607077 41.7719395,34.9401231 39.8421053,44.5128205 L39.8421053,54.5641026 L63,54.5641026 L63,112 L8,112 Z" id="合并形状-copy"></path>
            </g>
        </g>
    </g>
</svg>