<?xml version="1.0" encoding="UTF-8"?>
<svg width="384px" height="320px" version="1.1" xmlns="http://www.w3.org/2000/svg" xmlns:xlink="http://www.w3.org/1999/xlink">
    <!-- Generator: Sketch 53.1 (72631) - https://sketchapp.com -->
    <title>Rectangle 16 Copy 3</title>
    <desc>Created with Sketch.</desc>
    <g id="Page-1" stroke="none" stroke-width="1" fill="none" fill-rule="evenodd" opacity="0.400000006">
        <g id="鼠标悬停效果" transform="translate(-120.000000, -167.000000)" stroke="#6ACAFF" stroke-width="0.5">
            <g id="2-copy-2" transform="translate(120.000000, 167.000000)">
                <g id="Rectangle-16-Copy-3">
                    <g id="Group-15" transform="translate(-356.827063, -456.381993)">
                        <g id="分组-13" transform="translate(486.196813, 485.219079) rotate(-316.000000) translate(-486.196813, -485.219079) translate(136.696813, 148.219079)">
                            <path d="M0.820067769,673.919879 C19.5483288,655.775104 89.870591,698.465607 147.472381,641.152866 C196.595451,592.276297 158.934431,483.638363 240.806214,442.454655 C403.89272,360.417757 368.846079,332.05976 431.727411,250.052124 C473.648299,195.380366 553.012518,121.336285 669.820068,27.9198789" id="路径" opacity="0.600000024"></path>
                            <path d="M29.0280776,646.276546 C47.7563387,628.131771 118.078601,670.822274 175.680391,613.509533 C224.803461,564.632964 187.142441,455.99503 269.014224,414.811321 C432.10073,332.774424 397.054089,304.416427 459.935421,222.408791 C501.856309,167.737033 581.220528,93.6929515 698.028078,0.276545797" id="路径" opacity="0.600000024"></path>
                            <path d="M3.55507664,661.489958 C38.2977522,627.877016 30.1021022,568.859583 87.760503,510.580951 C164.46906,433.04724 330.58384,457.762541 419.337837,388.838393 C508.091834,319.914244 437.320089,234.09265 562.555077,113.489958" id="路径"></path>
                            <path d="M3.55507664,661.489958 C38.2977522,627.877016 23.5455822,565.708067 81.203983,507.429435 C157.91254,429.895724 311.628329,466.067225 419.337837,396.347159 C527.047344,326.627093 437.320089,234.09265 562.555077,113.489958" id="路径" opacity="0.300000012"></path>
                            <path d="M3.55507664,661.489958 C38.2977522,627.877016 35.0194922,573.586857 92.677893,515.308225 C169.38645,437.774514 351.520912,449.273839 421.388912,376.641529 C491.256913,304.009218 437.320089,234.09265 562.555077,113.489958" id="路径" opacity="0.600000024"></path>
                            <path d="M3.55507664,661.489958 C38.2977522,627.877016 38.2977522,579.889888 95.956153,521.611256 C172.66471,444.077545 361.746093,439.671845 419.300417,365.611223 C476.854742,291.550602 437.320089,234.09265 562.555077,113.489958" id="路径" opacity="0.5"></path>
                            <path d="M3.55507664,661.489958 C38.2977522,627.877016 41.5760122,584.617162 99.234413,526.33853 C175.94297,448.804819 352.978255,439.048066 416.842421,350.118725 C470.219057,275.793023 437.320089,234.09265 562.555077,113.489958" id="路径" opacity="0.300000012"></path>
                            <path d="M3.55507664,661.489958 C38.2977522,627.877016 44.8542723,590.920194 102.512673,532.641562 C179.22123,455.107851 330.196122,442.982786 400.798123,349.078076 C466.559855,261.611202 437.320089,234.09265 562.555077,113.489958" id="路径" opacity="0.100000001"></path>
                        </g>
                    </g>
                </g>
            </g>
        </g>
    </g>
</svg>